SplineFontDB: 3.2
FontName: Altinn-DINCondensed
FullName: Altinn-DIN Condensed
FamilyName: Altinn-DIN Condensed
Weight: Book
Copyright: Copyright (c) Altinn. All rights reserved.
Version: 2.00
ItalicAngle: 0
UnderlinePosition: -153
UnderlineWidth: 51
Ascent: 782
Descent: 242
InvalidEm: 0
sfntRevision: 0x00010000
LayerCount: 2
Layer: 0 1 "Back" 1
Layer: 1 1 "Fore" 0
XUID: [1021 976 -1802971697 20663]
StyleMap: 0x0040
FSType: 0
OS2Version: 4
OS2_WeightWidthSlopeOnly: 0
OS2_UseTypoMetrics: 1
CreationTime: 1462909513
ModificationTime: 1574596116
PfmFamily: 33
TTFWeight: 400
TTFWidth: 3
LineGap: 0
VLineGap: 0
Panose: 2 11 5 6 3 2 2 3 2 4
OS2TypoAscent: 782
OS2TypoAOffset: 0
OS2TypoDescent: -242
OS2TypoDOffset: 0
OS2TypoLinegap: 0
OS2WinAscent: 801
OS2WinAOffset: 0
OS2WinDescent: 248
OS2WinDOffset: 0
HheadAscent: 801
HheadAOffset: 0
HheadDescent: -173
HheadDOffset: 0
OS2SubXSize: 666
OS2SubYSize: 614
OS2SubXOff: 0
OS2SubYOff: 77
OS2SupXSize: 666
OS2SupYSize: 614
OS2SupXOff: 0
OS2SupYOff: 358
OS2StrikeYSize: 51
OS2StrikeYPos: 317
OS2CapHeight: 707
OS2XHeight: 529
OS2Vendor: 'MONO'
OS2CodePages: 00000001.00000000
OS2UnicodeRanges: 8000006f.4000000a.00000000.00000000
Lookup: 1 0 0 "'rtla' Right to Left Alternates lookup 0" { "'rtla' Right to Left Alternates lookup 0 subtable"  } ['rtla' ('DFLT' <'dflt' > ) ]
Lookup: 1 0 0 "'sups' Superscript lookup 1" { "'sups' Superscript lookup 1 subtable" ("superior") } ['sups' ('DFLT' <'dflt' > ) ]
Lookup: 4 0 0 "'frac' Diagonal Fractions lookup 2" { "'frac' Diagonal Fractions lookup 2 subtable"  } ['frac' ('DFLT' <'dflt' > ) ]
Lookup: 4 0 0 "'dlig' Discretionary Ligatures in Latin lookup 3" { "'dlig' Discretionary Ligatures in Latin lookup 3 subtable"  } ['dlig' ('latn' <'dflt' > ) ]
Lookup: 4 0 1 "'liga' Standard Ligatures in Latin lookup 4" { "'liga' Standard Ligatures in Latin lookup 4 subtable"  } ['liga' ('latn' <'dflt' > ) ]

StartChar: .notdef
Encoding: 65536 -1 0
Width: 614
Flags: W
LayerCount: 2
Fore
SplineSet
103 707 m 1,0,-1
 510 707 l 1,1,-1
 510 0 l 1,2,-1
 103 0 l 1,3,-1
 103 707 l 1,0,-1
475 35 m 1,4,-1
 475 672 l 1,5,-1
 138 672 l 1,6,-1
 138 35 l 1,7,-1
 475 35 l 1,4,-1
EndSplineSet
EndChar

StartChar: exclam
Encoding: 33 33 4
Width: 208
GlyphClass: 2
Flags: W
LayerCount: 2
Fore
SplineSet
60 707 m 1,0,-1
 148 707 l 1,1,-1
 133 201 l 1,2,-1
 75 201 l 1,3,-1
 60 707 l 1,0,-1
65 99 m 1,4,-1
 144 99 l 1,5,-1
 144 0 l 1,6,-1
 65 0 l 1,7,-1
 65 99 l 1,4,-1
EndSplineSet
EndChar

StartChar: quotedbl
Encoding: 34 34 5
Width: 286
GlyphClass: 2
Flags: W
LayerCount: 2
Fore
SplineSet
42 707 m 1,0,-1
 112 707 l 1,1,-1
 112 469 l 1,2,-1
 42 469 l 1,3,-1
 42 707 l 1,0,-1
175 707 m 1,4,-1
 245 707 l 1,5,-1
 245 469 l 1,6,-1
 175 469 l 1,7,-1
 175 707 l 1,4,-1
EndSplineSet
EndChar

StartChar: numbersign
Encoding: 35 35 6
Width: 473
GlyphClass: 2
Flags: W
LayerCount: 2
Fore
SplineSet
370 436 m 1,0,-1
 353 290 l 1,1,-1
 432 290 l 1,2,-1
 432 228 l 1,3,-1
 346 228 l 1,4,-1
 321 0 l 1,5,-1
 254 0 l 1,6,-1
 280 228 l 1,7,-1
 159 228 l 1,8,-1
 133 0 l 1,9,-1
 67 0 l 1,10,-1
 92 228 l 1,11,-1
 20 228 l 1,12,-1
 20 290 l 1,13,-1
 98 290 l 1,14,-1
 115 436 l 1,15,-1
 42 436 l 1,16,-1
 42 498 l 1,17,-1
 122 498 l 1,18,-1
 144 707 l 1,19,-1
 212 707 l 1,20,-1
 188 498 l 1,21,-1
 309 498 l 1,22,-1
 332 707 l 1,23,-1
 399 707 l 1,24,-1
 376 498 l 1,25,-1
 453 498 l 1,26,-1
 453 436 l 1,27,-1
 370 436 l 1,0,-1
302 436 m 1,28,-1
 182 436 l 1,29,-1
 166 290 l 1,30,-1
 286 290 l 1,31,-1
 302 436 l 1,28,-1
EndSplineSet
EndChar

StartChar: dollar
Encoding: 36 36 7
Width: 380
GlyphClass: 2
Flags: W
LayerCount: 2
Fore
SplineSet
312 81.5 m 128,-1,1
 280 37 280 37 217 28 c 1,2,-1
 217 -74 l 1,3,-1
 163 -74 l 1,4,-1
 163 27 l 1,5,6
 33 37 33 37 27 200 c 1,7,-1
 97 200 l 1,8,9
 102 105 102 105 163 88 c 1,10,-1
 163 327 l 1,11,-1
 152 332 l 2,12,13
 84 361 84 361 56.5 399.5 c 128,-1,14
 29 438 29 438 29 502 c 0,15,16
 29 580 29 580 65 624 c 128,-1,17
 101 668 101 668 163 675 c 1,18,-1
 163 771 l 1,19,-1
 217 771 l 1,20,-1
 217 674 l 1,21,22
 328 657 328 657 337 502 c 1,23,-1
 273 502 l 1,24,25
 270 591 270 591 217 608 c 1,26,-1
 217 386 l 1,27,28
 283 358 283 358 313.5 314.5 c 128,-1,29
 344 271 344 271 344 202 c 0,30,0
 344 126 344 126 312 81.5 c 128,-1,1
113 448 m 128,-1,32
 129 424 129 424 163 408 c 1,33,-1
 163 611 l 1,34,35
 131 604 131 604 114 578.5 c 128,-1,36
 97 553 97 553 97 512 c 0,37,31
 97 472 97 472 113 448 c 128,-1,32
275 193 m 0,39,40
 275 235 275 235 261.5 259.5 c 128,-1,41
 248 284 248 284 217 301 c 1,42,-1
 217 89 l 1,43,38
 275 107 275 107 275 193 c 0,39,40
59 707 m 1024,44,-1
EndSplineSet
EndChar

StartChar: percent
Encoding: 37 37 8
Width: 707
GlyphClass: 2
Flags: W
LayerCount: 2
Fore
SplineSet
60 302.5 m 128,-1,1
 34 335 34 335 34 400 c 2,2,-1
 34 586 l 2,3,4
 34 651 34 651 60.5 682.5 c 128,-1,5
 87 714 87 714 141 714 c 0,6,7
 196 714 196 714 222.5 682 c 128,-1,8
 249 650 249 650 249 586 c 2,9,-1
 249 400 l 2,10,11
 249 334 249 334 223 302 c 128,-1,12
 197 270 197 270 141 270 c 256,13,0
 86 270 86 270 60 302.5 c 128,-1,1
450 707 m 1,14,-1
 514 707 l 1,15,-1
 260 0 l 1,16,-1
 196 0 l 1,17,-1
 450 707 l 1,14,-1
170 349.5 m 128,-1,19
 178 365 178 365 178 400 c 2,20,-1
 178 586 l 2,21,22
 178 621 178 621 170 635.5 c 128,-1,23
 162 650 162 650 141 650 c 256,24,25
 121 650 121 650 112.5 635.5 c 128,-1,26
 104 621 104 621 104 586 c 2,27,-1
 104 400 l 2,28,29
 104 364 104 364 112.5 349 c 128,-1,30
 121 334 121 334 141 334 c 256,31,18
 162 334 162 334 170 349.5 c 128,-1,19
486 24 m 128,-1,33
 460 56 460 56 460 122 c 2,34,-1
 460 307 l 2,35,36
 460 372 460 372 486.5 403.5 c 128,-1,37
 513 435 513 435 567 435 c 0,38,39
 622 435 622 435 648.5 403.5 c 128,-1,40
 675 372 675 372 675 307 c 2,41,-1
 675 122 l 2,42,43
 675 56 675 56 649 24 c 128,-1,44
 623 -8 623 -8 567 -8 c 256,45,32
 512 -8 512 -8 486 24 c 128,-1,33
596 70.5 m 128,-1,47
 604 86 604 86 604 122 c 2,48,-1
 604 307 l 2,49,50
 604 342 604 342 596 357 c 128,-1,51
 588 372 588 372 567 372 c 256,52,53
 547 372 547 372 538.5 357 c 128,-1,54
 530 342 530 342 530 307 c 2,55,-1
 530 122 l 2,56,57
 530 86 530 86 538.5 70.5 c 128,-1,58
 547 55 547 55 567 55 c 256,59,46
 588 55 588 55 596 70.5 c 128,-1,47
EndSplineSet
EndChar

StartChar: ampersand
Encoding: 38 38 9
Width: 531
GlyphClass: 2
Flags: W
LayerCount: 2
Fore
SplineSet
480 69 m 1,0,-1
 480 -1 l 1,1,-1
 446 -1 l 2,2,3
 420 -1 420 -1 406 8.5 c 128,-1,4
 392 18 392 18 377 45 c 2,5,-1
 356 79 l 1,6,7
 324 32 324 32 287 11 c 128,-1,8
 250 -10 250 -10 202 -10 c 0,9,10
 132 -10 132 -10 91.5 34 c 128,-1,11
 51 78 51 78 51 151 c 0,12,13
 51 204 51 204 80.5 257 c 128,-1,14
 110 310 110 310 176 384 c 1,15,-1
 171 392 l 2,16,17
 129 463 129 463 112.5 501.5 c 128,-1,18
 96 540 96 540 96 575 c 0,19,20
 96 638 96 638 135 677.5 c 128,-1,21
 174 717 174 717 234 717 c 0,22,23
 295 717 295 717 334 678 c 128,-1,24
 373 639 373 639 373 575 c 0,25,26
 373 529 373 529 349.5 484.5 c 128,-1,27
 326 440 326 440 265 376 c 1,28,-1
 361 212 l 1,29,-1
 417 304 l 1,30,-1
 472 268 l 1,31,-1
 399 148 l 1,32,-1
 428 99 l 2,33,34
 438 82 438 82 447 75.5 c 128,-1,35
 456 69 456 69 469 69 c 2,36,-1
 480 69 l 1,0,-1
188.5 632.5 m 128,-1,38
 171 612 171 612 171 578 c 0,39,40
 171 555 171 555 182.5 526 c 128,-1,41
 194 497 194 497 227 440 c 1,42,43
 269 488 269 488 284 517 c 128,-1,44
 299 546 299 546 299 578 c 0,45,46
 299 614 299 614 282 633.5 c 128,-1,47
 265 653 265 653 236 653 c 256,48,37
 206 653 206 653 188.5 632.5 c 128,-1,38
263.5 78 m 128,-1,50
 289 96 289 96 318 142 c 1,51,-1
 214 321 l 1,52,53
 166 268 166 268 146 230.5 c 128,-1,54
 126 193 126 193 126 155 c 0,55,56
 126 110 126 110 148 85 c 128,-1,57
 170 60 170 60 208 60 c 0,58,49
 238 60 238 60 263.5 78 c 128,-1,50
EndSplineSet
EndChar

StartChar: quotesingle
Encoding: 39 39 10
Width: 153
GlyphClass: 2
Flags: W
LayerCount: 2
Fore
SplineSet
42 707 m 1,0,-1
 112 707 l 1,1,-1
 112 469 l 1,2,-1
 42 469 l 1,3,-1
 42 707 l 1,0,-1
EndSplineSet
EndChar

StartChar: parenleft
Encoding: 40 40 11
Width: 265
GlyphClass: 2
Flags: W
LayerCount: 2
Fore
SplineSet
77 120.5 m 128,-1,1
 51 228 51 228 51 336 c 0,2,3
 51 445 51 445 77 552 c 128,-1,4
 103 659 103 659 154 758 c 1,5,-1
 214 758 l 1,6,7
 169 657 169 657 145.5 549 c 128,-1,8
 122 441 122 441 122 336 c 256,9,10
 122 231 122 231 145.5 122.5 c 128,-1,11
 169 14 169 14 214 -86 c 1,12,-1
 154 -86 l 1,13,0
 103 13 103 13 77 120.5 c 128,-1,1
EndSplineSet
Substitution2: "'rtla' Right to Left Alternates lookup 0 subtable" parenright
EndChar

StartChar: parenright
Encoding: 41 41 12
Width: 265
GlyphClass: 2
Flags: W
LayerCount: 2
Fore
SplineSet
119.5 122 m 128,-1,1
 143 230 143 230 143 336 c 256,2,3
 143 441 143 441 119.5 548.5 c 128,-1,4
 96 656 96 656 51 758 c 1,5,-1
 112 758 l 1,6,7
 162 660 162 660 188 552 c 128,-1,8
 214 444 214 444 214 336 c 0,9,10
 214 228 214 228 188 120.5 c 128,-1,11
 162 13 162 13 112 -86 c 1,12,-1
 51 -86 l 1,13,0
 96 14 96 14 119.5 122 c 128,-1,1
EndSplineSet
Substitution2: "'rtla' Right to Left Alternates lookup 0 subtable" parenleft
EndChar

StartChar: asterisk
Encoding: 42 42 13
Width: 356
GlyphClass: 2
Flags: W
LayerCount: 2
Fore
SplineSet
282 479 m 1,0,-1
 204 524 l 1,1,-1
 204 419 l 1,2,-1
 153 419 l 1,3,-1
 153 524 l 1,4,-1
 75 479 l 1,5,-1
 51 519 l 1,6,-1
 131 565 l 1,7,-1
 51 611 l 1,8,-1
 75 652 l 1,9,-1
 153 607 l 1,10,-1
 153 707 l 1,11,-1
 204 707 l 1,12,-1
 204 606 l 1,13,-1
 282 651 l 1,14,-1
 304 611 l 1,15,-1
 224 565 l 1,16,-1
 305 519 l 1,17,-1
 282 479 l 1,0,-1
EndSplineSet
EndChar

StartChar: plus
Encoding: 43 43 14
Width: 430
GlyphClass: 2
Flags: W
LayerCount: 2
Fore
SplineSet
390 249 m 1,0,-1
 249 249 l 1,1,-1
 249 109 l 1,2,-1
 182 109 l 1,3,-1
 182 249 l 1,4,-1
 41 249 l 1,5,-1
 41 316 l 1,6,-1
 182 316 l 1,7,-1
 182 457 l 1,8,-1
 249 457 l 1,9,-1
 249 316 l 1,10,-1
 390 316 l 1,11,-1
 390 249 l 1,0,-1
EndSplineSet
EndChar

StartChar: comma
Encoding: 44 44 15
Width: 153
GlyphClass: 2
Flags: W
LayerCount: 2
Fore
SplineSet
42 95 m 1,0,-1
 112 95 l 1,1,-1
 112 -84 l 1,2,-1
 42 -144 l 1,3,-1
 42 95 l 1,0,-1
EndSplineSet
EndChar

StartChar: hyphen
Encoding: 45 45 16
Width: 384
GlyphClass: 2
Flags: W
LayerCount: 2
Fore
SplineSet
51 389 m 1,0,-1
 333 389 l 1,1,-1
 333 323 l 1,2,-1
 51 323 l 1,3,-1
 51 389 l 1,0,-1
EndSplineSet
EndChar

StartChar: period
Encoding: 46 46 17
Width: 163
GlyphClass: 2
Flags: W
LayerCount: 2
Fore
SplineSet
42 91 m 1,0,-1
 122 91 l 1,1,-1
 122 0 l 1,2,-1
 42 0 l 1,3,-1
 42 91 l 1,0,-1
EndSplineSet
EndChar

StartChar: slash
Encoding: 47 47 18
Width: 303
GlyphClass: 2
Flags: W
LayerCount: 2
Fore
SplineSet
185 707 m 1,0,-1
 252 707 l 1,1,-1
 118 -10 l 1,2,-1
 51 -10 l 1,3,-1
 185 707 l 1,0,-1
EndSplineSet
EndChar

StartChar: zero
Encoding: 48 48 19
Width: 412
GlyphClass: 2
Flags: W
LayerCount: 2
Fore
SplineSet
53 178 m 2,1,-1
 53 529 l 2,2,3
 53 715 53 715 207 716 c 0,4,5
 360 716 360 716 359 529 c 2,6,-1
 359 178 l 2,7,8
 359 -9 359 -9 207 -9 c 0,9,0
 53 -9 53 -9 53 178 c 2,1,-1
268 87 m 128,-1,11
 285 117 285 117 285 189 c 2,12,-1
 285 517 l 2,13,14
 285 590 285 590 268 619.5 c 128,-1,15
 251 649 251 649 207 649 c 256,16,17
 163 649 163 649 145.5 619.5 c 128,-1,18
 128 590 128 590 128 517 c 2,19,-1
 128 189 l 2,20,21
 128 116 128 116 145.5 86.5 c 128,-1,22
 163 57 163 57 207 57 c 256,23,10
 251 57 251 57 268 87 c 128,-1,11
EndSplineSet
EndChar

StartChar: one
Encoding: 49 49 20
Width: 280
GlyphClass: 2
Flags: W
LayerCount: 2
Fore
SplineSet
144 620 m 1,0,-1
 40 538 l 1,1,-1
 40 625 l 1,2,-1
 144 707 l 1,3,-1
 213 707 l 1,4,-1
 213 0 l 1,5,-1
 144 0 l 1,6,-1
 144 620 l 1,0,-1
EndSplineSet
Substitution2: "'sups' Superscript lookup 1 subtable" uni00B9
EndChar

StartChar: two
Encoding: 50 50 21
Width: 401
GlyphClass: 2
Flags: W
LayerCount: 2
Fore
SplineSet
48 59 m 1,0,-1
 244 407 l 2,1,2
 261 437 261 437 270 465 c 128,-1,3
 279 493 279 493 279 527 c 2,4,-1
 279 556 l 2,5,6
 279 601 279 601 259 625 c 128,-1,7
 239 649 239 649 198 649 c 0,8,9
 163 649 163 649 142.5 625 c 128,-1,10
 122 601 122 601 122 557 c 2,11,-1
 122 516 l 1,12,-1
 48 516 l 1,13,-1
 48 564 l 2,14,15
 48 634 48 634 89 675 c 128,-1,16
 130 716 130 716 201 716 c 256,17,18
 272 716 272 716 312.5 675 c 128,-1,19
 353 634 353 634 353 565 c 2,20,-1
 353 527 l 2,21,22
 353 483 353 483 342 448.5 c 128,-1,23
 331 414 331 414 306 372 c 2,24,-1
 134 67 l 1,25,-1
 350 67 l 1,26,-1
 350 0 l 1,27,-1
 48 0 l 1,28,-1
 48 59 l 1,0,-1
EndSplineSet
Substitution2: "'sups' Superscript lookup 1 subtable" uni00B2
EndChar

StartChar: three
Encoding: 51 51 22
Width: 414
GlyphClass: 2
Flags: W
LayerCount: 2
Fore
SplineSet
88 30 m 128,-1,1
 48 69 48 69 48 139 c 2,2,-1
 48 184 l 1,3,-1
 122 184 l 1,4,-1
 122 145 l 2,5,6
 122 103 122 103 143.5 80 c 128,-1,7
 165 57 165 57 204 57 c 0,8,9
 245 57 245 57 266 81.5 c 128,-1,10
 287 106 287 106 287 152 c 2,11,-1
 287 230 l 2,12,13
 287 281 287 281 266.5 307.5 c 128,-1,14
 246 334 246 334 200 334 c 2,15,-1
 170 334 l 1,16,-1
 170 400 l 1,17,-1
 200 400 l 2,18,19
 245 400 245 400 264.5 425.5 c 128,-1,20
 284 451 284 451 284 500 c 2,21,-1
 284 555 l 2,22,23
 284 601 284 601 263 625 c 128,-1,24
 242 649 242 649 203 649 c 0,25,26
 165 649 165 649 144.5 626 c 128,-1,27
 124 603 124 603 124 561 c 2,28,-1
 124 520 l 1,29,-1
 50 520 l 1,30,-1
 50 562 l 2,31,32
 50 635 50 635 90 675.5 c 128,-1,33
 130 716 130 716 205 716 c 0,34,35
 279 716 279 716 318 676 c 128,-1,36
 357 636 357 636 357 563 c 2,37,-1
 357 503 l 2,38,39
 357 452 357 452 340.5 420.5 c 128,-1,40
 324 389 324 389 284 371 c 1,41,42
 328 351 328 351 344.5 318 c 128,-1,43
 361 285 361 285 361 229 c 2,44,-1
 361 155 l 2,45,46
 361 76 361 76 320.5 33.5 c 128,-1,47
 280 -9 280 -9 203 -9 c 0,48,0
 128 -9 128 -9 88 30 c 128,-1,1
EndSplineSet
Substitution2: "'sups' Superscript lookup 1 subtable" uni00B3
EndChar

StartChar: four
Encoding: 52 52 23
Width: 425
GlyphClass: 2
Flags: W
LayerCount: 2
Fore
SplineSet
389 142 m 1,0,-1
 327 142 l 1,1,-1
 327 0 l 1,2,-1
 252 0 l 1,3,-1
 252 142 l 1,4,-1
 37 142 l 1,5,-1
 37 209 l 1,6,-1
 185 707 l 1,7,-1
 260 707 l 1,8,-1
 110 209 l 1,9,-1
 252 209 l 1,10,-1
 252 394 l 1,11,-1
 327 394 l 1,12,-1
 327 209 l 1,13,-1
 389 209 l 1,14,-1
 389 142 l 1,0,-1
EndSplineSet
EndChar

StartChar: five
Encoding: 53 53 24
Width: 407
GlyphClass: 2
Flags: W
LayerCount: 2
Fore
SplineSet
91.5 31.5 m 128,-1,1
 53 72 53 72 53 150 c 2,2,-1
 53 168 l 1,3,-1
 124 168 l 1,4,-1
 124 151 l 2,5,6
 124 58 124 58 202 57 c 0,7,8
 242 57 242 57 261 81.5 c 128,-1,9
 280 106 280 106 280 159 c 2,10,-1
 280 286 l 2,11,12
 280 338 280 338 261.5 362.5 c 128,-1,13
 243 387 243 387 203 387 c 0,14,15
 152 387 152 387 125 337 c 1,16,-1
 61 337 l 1,17,-1
 61 707 l 1,18,-1
 348 707 l 1,19,-1
 348 637 l 1,20,-1
 131 637 l 1,21,-1
 131 420 l 1,22,23
 145 435 145 435 167 444.5 c 128,-1,24
 189 454 189 454 217 454 c 0,25,26
 354 454 354 454 354 287 c 2,27,-1
 354 162 l 2,28,29
 354 -9 354 -9 203 -9 c 0,30,0
 130 -9 130 -9 91.5 31.5 c 128,-1,1
EndSplineSet
EndChar

StartChar: six
Encoding: 54 54 25
Width: 404
GlyphClass: 2
Flags: W
LayerCount: 2
Fore
SplineSet
89.5 35 m 128,-1,1
 48 79 48 79 48 155 c 2,2,-1
 48 257 l 2,3,4
 48 300 48 300 55 330 c 128,-1,5
 62 360 62 360 81 404 c 2,6,-1
 208 707 l 1,7,-1
 283 707 l 1,8,-1
 159 408 l 1,9,10
 167 414 167 414 182.5 418 c 128,-1,11
 198 422 198 422 215 422 c 0,12,13
 281 422 281 422 318.5 381 c 128,-1,14
 356 340 356 340 356 268 c 2,15,-1
 356 153 l 2,16,17
 356 78 356 78 314 34.5 c 128,-1,18
 272 -9 272 -9 203 -9 c 0,19,0
 131 -9 131 -9 89.5 35 c 128,-1,1
261.5 81.5 m 128,-1,21
 282 106 282 106 282 152 c 2,22,-1
 282 262 l 2,23,24
 282 307 282 307 261.5 331.5 c 128,-1,25
 241 356 241 356 203 356 c 256,26,27
 165 356 165 356 144 332.5 c 128,-1,28
 123 309 123 309 123 266 c 2,29,-1
 123 153 l 2,30,31
 123 107 123 107 143.5 82 c 128,-1,32
 164 57 164 57 203 57 c 0,33,20
 241 57 241 57 261.5 81.5 c 128,-1,21
EndSplineSet
EndChar

StartChar: seven
Encoding: 55 55 26
Width: 369
GlyphClass: 2
Flags: W
LayerCount: 2
Fore
SplineSet
338 707 m 1,0,-1
 338 640 l 1,1,-1
 147 0 l 1,2,-1
 73 0 l 1,3,-1
 264 640 l 1,4,-1
 32 640 l 1,5,-1
 32 707 l 1,6,-1
 338 707 l 1,0,-1
EndSplineSet
EndChar

StartChar: eight
Encoding: 56 56 27
Width: 412
GlyphClass: 2
Flags: W
LayerCount: 2
Fore
SplineSet
93.5 35 m 128,-1,1
 53 79 53 79 53 157 c 2,2,-1
 53 234 l 2,3,4
 53 332 53 332 124 371 c 1,5,6
 92 388 92 388 74.5 421.5 c 128,-1,7
 57 455 57 455 57 497 c 2,8,-1
 57 562 l 2,9,10
 57 632 57 632 97.5 674 c 128,-1,11
 138 716 138 716 206 716 c 0,12,13
 275 716 275 716 315 674 c 128,-1,14
 355 632 355 632 355 562 c 2,15,-1
 355 497 l 2,16,17
 355 454 355 454 338 420.5 c 128,-1,18
 321 387 321 387 289 371 c 1,19,20
 360 333 360 333 359 234 c 2,21,-1
 359 157 l 2,22,23
 359 79 359 79 319 35 c 128,-1,24
 279 -9 279 -9 206 -9 c 0,25,0
 134 -9 134 -9 93.5 35 c 128,-1,1
267 427 m 128,-1,27
 287 453 287 453 287 497 c 2,28,-1
 287 562 l 2,29,30
 287 604 287 604 265.5 628 c 128,-1,31
 244 652 244 652 206 652 c 256,32,33
 168 652 168 652 147 627.5 c 128,-1,34
 126 603 126 603 126 562 c 2,35,-1
 126 497 l 2,36,37
 126 452 126 452 146.5 426.5 c 128,-1,38
 167 401 167 401 206 401 c 0,39,26
 247 401 247 401 267 427 c 128,-1,27
291 159 m 2,41,-1
 291 236 l 2,42,43
 291 339 291 339 206 339 c 0,44,45
 163 339 163 339 142.5 311.5 c 128,-1,46
 122 284 122 284 122 236 c 2,47,-1
 122 159 l 2,48,49
 122 110 122 110 142.5 82 c 128,-1,50
 163 54 163 54 206 54 c 0,51,40
 291 55 291 55 291 159 c 2,41,-1
EndSplineSet
EndChar

StartChar: nine
Encoding: 57 57 28
Width: 404
GlyphClass: 2
Flags: W
LayerCount: 2
Fore
SplineSet
247 299 m 1,0,1
 239 293 239 293 223 289 c 128,-1,2
 207 285 207 285 189 285 c 0,3,4
 123 285 123 285 85.5 326 c 128,-1,5
 48 367 48 367 48 438 c 2,6,-1
 48 554 l 2,7,8
 48 630 48 630 90 673 c 128,-1,9
 132 716 132 716 203 716 c 0,10,11
 275 716 275 716 315.5 672 c 128,-1,12
 356 628 356 628 356 552 c 2,13,-1
 356 450 l 2,14,15
 356 407 356 407 349 376.5 c 128,-1,16
 342 346 342 346 324 302 c 2,17,-1
 197 0 l 1,18,-1
 122 0 l 1,19,-1
 247 299 l 1,0,1
261.5 373.5 m 128,-1,21
 282 397 282 397 282 440 c 2,22,-1
 282 554 l 2,23,24
 282 600 282 600 261.5 624.5 c 128,-1,25
 241 649 241 649 203 649 c 0,26,27
 164 649 164 649 143.5 624.5 c 128,-1,28
 123 600 123 600 123 555 c 2,29,-1
 123 444 l 2,30,31
 123 399 123 399 143.5 374.5 c 128,-1,32
 164 350 164 350 203 350 c 0,33,20
 241 350 241 350 261.5 373.5 c 128,-1,21
EndSplineSet
EndChar

StartChar: colon
Encoding: 58 58 29
Width: 163
GlyphClass: 2
Flags: W
LayerCount: 2
Fore
SplineSet
42 91 m 1,0,-1
 122 91 l 1,1,-1
 122 0 l 1,2,-1
 42 0 l 1,3,-1
 42 91 l 1,0,-1
42 437 m 1,4,-1
 122 437 l 1,5,-1
 122 346 l 1,6,-1
 42 346 l 1,7,-1
 42 437 l 1,4,-1
EndSplineSet
EndChar

StartChar: semicolon
Encoding: 59 59 30
Width: 163
GlyphClass: 2
Flags: W
LayerCount: 2
Fore
SplineSet
50 95 m 1,0,-1
 120 95 l 1,1,-1
 120 -84 l 1,2,-1
 50 -144 l 1,3,-1
 50 95 l 1,0,-1
42 437 m 1,4,-1
 122 437 l 1,5,-1
 122 346 l 1,6,-1
 42 346 l 1,7,-1
 42 437 l 1,4,-1
EndSplineSet
EndChar

StartChar: less
Encoding: 60 60 31
Width: 430
GlyphClass: 2
Flags: W
LayerCount: 2
Fore
SplineSet
41 250 m 1,0,-1
 41 315 l 1,1,-1
 390 458 l 1,2,-1
 390 389 l 1,3,-1
 126 283 l 1,4,-1
 390 176 l 1,5,-1
 390 108 l 1,6,-1
 41 250 l 1,0,-1
EndSplineSet
Substitution2: "'rtla' Right to Left Alternates lookup 0 subtable" greater
EndChar

StartChar: equal
Encoding: 61 61 32
Width: 430
GlyphClass: 2
Flags: W
LayerCount: 2
Fore
SplineSet
41 411 m 1,0,-1
 390 411 l 1,1,-1
 390 344 l 1,2,-1
 41 344 l 1,3,-1
 41 411 l 1,0,-1
41 220 m 1,4,-1
 390 220 l 1,5,-1
 390 153 l 1,6,-1
 41 153 l 1,7,-1
 41 220 l 1,4,-1
EndSplineSet
EndChar

StartChar: greater
Encoding: 62 62 33
Width: 430
GlyphClass: 2
Flags: W
LayerCount: 2
Fore
SplineSet
41 176 m 1,0,-1
 305 283 l 1,1,-1
 41 389 l 1,2,-1
 41 458 l 1,3,-1
 390 315 l 1,4,-1
 390 250 l 1,5,-1
 41 108 l 1,6,-1
 41 176 l 1,0,-1
EndSplineSet
Substitution2: "'rtla' Right to Left Alternates lookup 0 subtable" less
EndChar

StartChar: question
Encoding: 63 63 34
Width: 371
GlyphClass: 2
Flags: W
LayerCount: 2
Fore
SplineSet
145 252 m 2,0,1
 145 286 145 286 152 309 c 128,-1,2
 159 332 159 332 181 371 c 2,3,-1
 224 442 l 2,4,5
 243 475 243 475 251 497.5 c 128,-1,6
 259 520 259 520 259 552 c 0,7,8
 259 650 259 650 183 650 c 0,9,10
 139 650 139 650 122 620.5 c 128,-1,11
 105 591 105 591 105 524 c 1,12,-1
 31 524 l 1,13,14
 31 717 31 717 182 717 c 0,15,16
 256 717 256 717 295 673 c 128,-1,17
 334 629 334 629 334 552 c 0,18,19
 334 514 334 514 323 484.5 c 128,-1,20
 312 455 312 455 284 404 c 2,21,-1
 246 341 l 2,22,23
 230 313 230 313 225 294.5 c 128,-1,24
 220 276 220 276 220 247 c 2,25,-1
 220 182 l 1,26,-1
 145 182 l 1,27,-1
 145 252 l 2,0,1
142 99 m 1,28,-1
 222 99 l 1,29,-1
 222 0 l 1,30,-1
 142 0 l 1,31,-1
 142 99 l 1,28,-1
EndSplineSet
EndChar

StartChar: at
Encoding: 64 64 35
Width: 751
GlyphClass: 2
Flags: W
LayerCount: 2
Fore
SplineSet
202 -88.5 m 128,-1,1
 129 -46 129 -46 90 31.5 c 128,-1,2
 51 109 51 109 51 213 c 2,3,-1
 51 371 l 2,4,5
 51 472 51 472 91 549 c 128,-1,6
 131 626 131 626 204.5 667.5 c 128,-1,7
 278 709 278 709 375 709 c 0,8,9
 471 709 471 709 545.5 667.5 c 128,-1,10
 620 626 620 626 660 551 c 128,-1,11
 700 476 700 476 700 380 c 2,12,-1
 700 221 l 2,13,14
 700 140 700 140 666 98.5 c 128,-1,15
 632 57 632 57 569 57 c 0,16,17
 530 57 530 57 501.5 74.5 c 128,-1,18
 473 92 473 92 460 124 c 1,19,20
 446 90 446 90 420.5 73.5 c 128,-1,21
 395 57 395 57 354 57 c 0,22,23
 294 57 294 57 266.5 96.5 c 128,-1,24
 239 136 239 136 239 210 c 2,25,-1
 239 360 l 2,26,27
 239 433 239 433 265.5 471.5 c 128,-1,28
 292 510 292 510 352 510 c 0,29,30
 411 510 411 510 440 463 c 1,31,-1
 440 502 l 1,32,-1
 510 502 l 1,33,-1
 510 190 l 2,34,35
 510 155 510 155 527 137 c 128,-1,36
 544 119 544 119 570 119 c 0,37,38
 604 119 604 119 619 143 c 128,-1,39
 634 167 634 167 634 214 c 2,40,-1
 634 379 l 2,41,42
 634 502 634 502 565 574 c 128,-1,43
 496 646 496 646 375 646 c 0,44,45
 253 646 253 646 186 573.5 c 128,-1,46
 119 501 119 501 119 371 c 2,47,-1
 119 214 l 2,48,49
 119 81 119 81 186 6 c 128,-1,50
 253 -69 253 -69 375 -69 c 0,51,52
 430 -69 430 -69 472 -56.5 c 128,-1,53
 514 -44 514 -44 554 -16 c 1,54,-1
 587 -68 l 1,55,56
 539 -101 539 -101 487.5 -116 c 128,-1,57
 436 -131 436 -131 375 -131 c 0,58,0
 275 -131 275 -131 202 -88.5 c 128,-1,1
425.5 145 m 128,-1,60
 440 169 440 169 440 212 c 2,61,-1
 440 358 l 2,62,63
 440 401 440 401 425 423.5 c 128,-1,64
 410 446 410 446 374 446 c 256,65,66
 338 446 338 446 323.5 423.5 c 128,-1,67
 309 401 309 401 309 359 c 2,68,-1
 309 211 l 2,69,70
 309 167 309 167 324 144 c 128,-1,71
 339 121 339 121 374 121 c 0,72,59
 411 121 411 121 425.5 145 c 128,-1,60
EndSplineSet
EndChar

StartChar: A
Encoding: 65 65 36
Width: 472
GlyphClass: 2
Flags: W
LayerCount: 2
Fore
SplineSet
339 180 m 1,0,-1
 132 180 l 1,1,-1
 87 0 l 1,2,-1
 9 0 l 1,3,-1
 202 707 l 1,4,-1
 270 707 l 1,5,-1
 463 0 l 1,6,-1
 384 0 l 1,7,-1
 339 180 l 1,0,-1
323 245 m 1,8,-1
 236 594 l 1,9,-1
 148 245 l 1,10,-1
 323 245 l 1,8,-1
EndSplineSet
EndChar

StartChar: B
Encoding: 66 66 37
Width: 481
GlyphClass: 2
Flags: W
LayerCount: 2
Fore
SplineSet
428 195 m 0,1,2
 428 99 428 99 383.5 49.5 c 128,-1,3
 339 0 339 0 243 0 c 2,4,-1
 61 0 l 1,5,-1
 61 707 l 1,6,-1
 242 707 l 2,7,8
 336 707 336 707 378.5 661 c 128,-1,9
 421 615 421 615 421 522 c 0,10,11
 421 401 421 401 328 367 c 1,12,0
 428 339 428 339 428 195 c 0,1,2
136 640 m 1,13,-1
 136 399 l 1,14,-1
 236 399 l 2,15,16
 347 399 347 399 346 518 c 0,17,18
 346 584 346 584 320 612 c 128,-1,19
 294 640 294 640 237 640 c 2,20,-1
 136 640 l 1,13,-1
325.5 99.5 m 128,-1,22
 353 132 353 132 353 200 c 0,23,24
 353 333 353 333 237 333 c 2,25,-1
 136 333 l 1,26,-1
 136 67 l 1,27,-1
 237 67 l 2,28,21
 298 67 298 67 325.5 99.5 c 128,-1,22
EndSplineSet
EndChar

StartChar: C
Encoding: 67 67 38
Width: 489
GlyphClass: 2
Flags: W
LayerCount: 2
Fore
SplineSet
106.5 45.5 m 128,-1,1
 53 99 53 99 53 206 c 2,2,-1
 53 501 l 2,3,4
 53 609 53 609 106 662.5 c 128,-1,5
 159 716 159 716 246 716 c 0,6,7
 330 716 330 716 383 664.5 c 128,-1,8
 436 613 436 613 436 510 c 2,9,-1
 436 501 l 1,10,-1
 361 501 l 1,11,-1
 361 508 l 2,12,13
 361 581 361 581 330 614.5 c 128,-1,14
 299 648 299 648 247 648 c 0,15,16
 188 648 188 648 158 610.5 c 128,-1,17
 128 573 128 573 128 494 c 2,18,-1
 128 205 l 2,19,20
 128 60 128 60 247 59 c 0,21,22
 300 59 300 59 330.5 93 c 128,-1,23
 361 127 361 127 361 197 c 2,24,-1
 361 206 l 1,25,-1
 434 206 l 1,26,-1
 434 196 l 2,27,28
 434 94 434 94 382 43 c 128,-1,29
 330 -8 330 -8 247 -8 c 0,30,0
 160 -8 160 -8 106.5 45.5 c 128,-1,1
EndSplineSet
EndChar

StartChar: D
Encoding: 68 68 39
Width: 488
GlyphClass: 2
Flags: W
LayerCount: 2
Fore
SplineSet
61 707 m 1,0,-1
 245 707 l 2,1,2
 331 707 331 707 383 653.5 c 128,-1,3
 435 600 435 600 435 493 c 2,4,-1
 435 214 l 2,5,6
 435 108 435 108 383 54 c 128,-1,7
 331 0 331 0 245 0 c 2,8,-1
 61 0 l 1,9,-1
 61 707 l 1,0,-1
245 67 m 2,10,11
 300 67 300 67 330 103.5 c 128,-1,12
 360 140 360 140 360 213 c 2,13,-1
 360 485 l 2,14,15
 360 563 360 563 330.5 601.5 c 128,-1,16
 301 640 301 640 245 640 c 2,17,-1
 136 640 l 1,18,-1
 136 67 l 1,19,-1
 245 67 l 2,10,11
EndSplineSet
EndChar

StartChar: E
Encoding: 69 69 40
Width: 412
GlyphClass: 2
Flags: W
LayerCount: 2
Fore
SplineSet
135 640 m 1,0,-1
 135 393 l 1,1,-1
 342 393 l 1,2,-1
 342 326 l 1,3,-1
 135 326 l 1,4,-1
 135 67 l 1,5,-1
 376 67 l 1,6,-1
 376 0 l 1,7,-1
 61 0 l 1,8,-1
 61 707 l 1,9,-1
 376 707 l 1,10,-1
 376 640 l 1,11,-1
 135 640 l 1,0,-1
EndSplineSet
EndChar

StartChar: F
Encoding: 70 70 41
Width: 406
GlyphClass: 2
Flags: W
LayerCount: 2
Fore
SplineSet
136 640 m 1,0,-1
 136 390 l 1,1,-1
 343 390 l 1,2,-1
 343 323 l 1,3,-1
 136 323 l 1,4,-1
 136 0 l 1,5,-1
 61 0 l 1,6,-1
 61 707 l 1,7,-1
 376 707 l 1,8,-1
 376 640 l 1,9,-1
 136 640 l 1,0,-1
EndSplineSet
EndChar

StartChar: G
Encoding: 71 71 42
Width: 489
GlyphClass: 2
Flags: W
LayerCount: 2
Fore
SplineSet
106 45.5 m 128,-1,1
 53 99 53 99 53 206 c 2,2,-1
 53 501 l 2,3,4
 53 609 53 609 106 662.5 c 128,-1,5
 159 716 159 716 246 716 c 0,6,7
 331 716 331 716 383.5 665 c 128,-1,8
 436 614 436 614 436 520 c 2,9,-1
 436 508 l 1,10,-1
 361 508 l 1,11,-1
 361 520 l 2,12,13
 361 581 361 581 330 614.5 c 128,-1,14
 299 648 299 648 246 648 c 0,15,16
 128 648 128 648 128 494 c 2,17,-1
 128 205 l 2,18,19
 128 60 128 60 246 59 c 0,20,21
 302 59 302 59 331.5 94.5 c 128,-1,22
 361 130 361 130 361 202 c 2,23,-1
 361 300 l 1,24,-1
 245 300 l 1,25,-1
 245 362 l 1,26,-1
 436 362 l 1,27,-1
 436 205 l 2,28,29
 436 99 436 99 384 45.5 c 128,-1,30
 332 -8 332 -8 246 -8 c 0,31,0
 159 -8 159 -8 106 45.5 c 128,-1,1
EndSplineSet
EndChar

StartChar: H
Encoding: 72 72 43
Width: 489
GlyphClass: 2
Flags: W
LayerCount: 2
Fore
SplineSet
428 707 m 1,0,-1
 428 0 l 1,1,-1
 353 0 l 1,2,-1
 353 327 l 1,3,-1
 136 327 l 1,4,-1
 136 0 l 1,5,-1
 61 0 l 1,6,-1
 61 707 l 1,7,-1
 136 707 l 1,8,-1
 136 393 l 1,9,-1
 353 393 l 1,10,-1
 353 707 l 1,11,-1
 428 707 l 1,0,-1
EndSplineSet
EndChar

StartChar: I
Encoding: 73 73 44
Width: 208
GlyphClass: 2
Flags: W
LayerCount: 2
Fore
SplineSet
68 707 m 1,0,-1
 141 707 l 1,1,-1
 141 0 l 1,2,-1
 68 0 l 1,3,-1
 68 707 l 1,0,-1
EndSplineSet
EndChar

StartChar: J
Encoding: 74 74 45
Width: 269
GlyphClass: 2
Flags: W
LayerCount: 2
Fore
SplineSet
25 67 m 1,0,-1
 54 67 l 2,1,2
 90 67 90 67 108.5 88 c 128,-1,3
 127 109 127 109 127 148 c 2,4,-1
 127 707 l 1,5,-1
 202 707 l 1,6,-1
 202 140 l 2,7,8
 202 71 202 71 165.5 35.5 c 128,-1,9
 129 0 129 0 60 0 c 2,10,-1
 25 0 l 1,11,-1
 25 67 l 1,0,-1
EndSplineSet
EndChar

StartChar: K
Encoding: 75 75 46
Width: 472
GlyphClass: 2
Flags: W
LayerCount: 2
Fore
SplineSet
226 343 m 1,0,-1
 136 189 l 1,1,-1
 136 0 l 1,2,-1
 61 0 l 1,3,-1
 61 707 l 1,4,-1
 136 707 l 1,5,-1
 136 313 l 1,6,-1
 362 707 l 1,7,-1
 441 707 l 1,8,-1
 271 419 l 1,9,-1
 466 0 l 1,10,-1
 384 0 l 1,11,-1
 226 343 l 1,0,-1
EndSplineSet
EndChar

StartChar: L
Encoding: 76 76 47
Width: 400
GlyphClass: 2
Flags: W
LayerCount: 2
Fore
SplineSet
61 707 m 1,0,-1
 136 707 l 1,1,-1
 136 67 l 1,2,-1
 376 67 l 1,3,-1
 376 0 l 1,4,-1
 61 0 l 1,5,-1
 61 707 l 1,0,-1
EndSplineSet
EndChar

StartChar: M
Encoding: 77 77 48
Width: 612
GlyphClass: 2
Flags: W
LayerCount: 2
Fore
SplineSet
551 707 m 1,0,-1
 551 0 l 1,1,-1
 476 0 l 1,2,-1
 476 543 l 1,3,-1
 331 164 l 1,4,-1
 282 164 l 1,5,-1
 136 540 l 1,6,-1
 136 0 l 1,7,-1
 61 0 l 1,8,-1
 61 707 l 1,9,-1
 136 707 l 1,10,-1
 307 270 l 1,11,-1
 476 707 l 1,12,-1
 551 707 l 1,0,-1
EndSplineSet
EndChar

StartChar: N
Encoding: 78 78 49
Width: 514
GlyphClass: 2
Flags: W
LayerCount: 2
Fore
SplineSet
453 707 m 1,0,-1
 453 0 l 1,1,-1
 378 0 l 1,2,-1
 136 543 l 1,3,-1
 136 0 l 1,4,-1
 61 0 l 1,5,-1
 61 707 l 1,6,-1
 136 707 l 1,7,-1
 378 163 l 1,8,-1
 378 707 l 1,9,-1
 453 707 l 1,0,-1
EndSplineSet
EndChar

StartChar: O
Encoding: 79 79 50
Width: 489
GlyphClass: 2
Flags: W
LayerCount: 2
Fore
SplineSet
105.5 45.5 m 128,-1,1
 53 99 53 99 53 206 c 2,2,-1
 53 501 l 2,3,4
 53 610 53 610 105.5 663 c 128,-1,5
 158 716 158 716 245 716 c 256,6,7
 332 716 332 716 384 662.5 c 128,-1,8
 436 609 436 609 436 501 c 2,9,-1
 436 206 l 2,10,11
 436 100 436 100 383.5 46 c 128,-1,12
 331 -8 331 -8 245 -8 c 0,13,0
 158 -8 158 -8 105.5 45.5 c 128,-1,1
331 95.5 m 128,-1,15
 361 132 361 132 361 205 c 2,16,-1
 361 494 l 2,17,18
 361 572 361 572 331.5 610 c 128,-1,19
 302 648 302 648 246 648 c 0,20,21
 187 648 187 648 157.5 610 c 128,-1,22
 128 572 128 572 128 494 c 2,23,-1
 128 205 l 2,24,25
 128 60 128 60 246 59 c 0,26,14
 301 59 301 59 331 95.5 c 128,-1,15
EndSplineSet
EndChar

StartChar: P
Encoding: 80 80 51
Width: 450
GlyphClass: 2
Flags: W
LayerCount: 2
Fore
SplineSet
382.5 655 m 128,-1,1
 426 603 426 603 426 501 c 0,2,3
 426 299 426 299 245 299 c 2,4,-1
 136 299 l 1,5,-1
 136 0 l 1,6,-1
 61 0 l 1,7,-1
 61 707 l 1,8,-1
 245 707 l 2,9,0
 339 707 339 707 382.5 655 c 128,-1,1
325 397.5 m 128,-1,11
 352 429 352 429 352 501 c 0,12,13
 352 575 352 575 325 607.5 c 128,-1,14
 298 640 298 640 241 640 c 2,15,-1
 136 640 l 1,16,-1
 136 366 l 1,17,-1
 241 366 l 2,18,10
 298 366 298 366 325 397.5 c 128,-1,11
EndSplineSet
EndChar

StartChar: Q
Encoding: 81 81 52
Width: 489
GlyphClass: 2
Flags: W
LayerCount: 2
Fore
SplineSet
412.5 87.5 m 128,-1,1
 389 40 389 40 346 16 c 1,2,-1
 403 -122 l 1,3,-1
 342 -146 l 1,4,-1
 284 -5 l 1,5,6
 266 -8 266 -8 245 -8 c 0,7,8
 158 -8 158 -8 105.5 45.5 c 128,-1,9
 53 99 53 99 53 206 c 2,10,-1
 53 501 l 2,11,12
 53 610 53 610 105.5 663 c 128,-1,13
 158 716 158 716 245 716 c 256,14,15
 332 716 332 716 384 662.5 c 128,-1,16
 436 609 436 609 436 501 c 2,17,-1
 436 206 l 2,18,0
 436 135 436 135 412.5 87.5 c 128,-1,1
361 494 m 2,19,20
 361 572 361 572 331.5 610 c 128,-1,21
 302 648 302 648 246 648 c 0,22,23
 187 648 187 648 157.5 610 c 128,-1,24
 128 572 128 572 128 494 c 2,25,-1
 128 205 l 2,26,27
 128 60 128 60 246 59 c 0,28,29
 301 59 301 59 331 95.5 c 128,-1,30
 361 132 361 132 361 205 c 2,31,-1
 361 494 l 2,19,20
EndSplineSet
EndChar

StartChar: R
Encoding: 82 82 53
Width: 477
GlyphClass: 2
Flags: W
LayerCount: 2
Fore
SplineSet
250 309 m 1,0,-1
 136 309 l 1,1,-1
 136 0 l 1,2,-1
 61 0 l 1,3,-1
 61 707 l 1,4,-1
 248 707 l 2,5,6
 341 707 341 707 383.5 657.5 c 128,-1,7
 426 608 426 608 426 507 c 0,8,9
 426 355 426 355 322 321 c 1,10,-1
 446 0 l 1,11,-1
 367 0 l 1,12,-1
 250 309 l 1,0,-1
136 375 m 1,13,-1
 247 375 l 2,14,15
 301 375 301 375 326 408 c 128,-1,16
 351 441 351 441 351 507 c 0,17,18
 351 574 351 574 327 607 c 128,-1,19
 303 640 303 640 247 640 c 2,20,-1
 136 640 l 1,21,-1
 136 375 l 1,13,-1
EndSplineSet
EndChar

StartChar: S
Encoding: 83 83 54
Width: 436
GlyphClass: 2
Flags: W
LayerCount: 2
Fore
SplineSet
75.5 44 m 128,-1,1
 29 95 29 95 27 194 c 1,2,-1
 99 194 l 1,3,4
 102 122 102 122 131.5 90.5 c 128,-1,5
 161 59 161 59 215 59 c 0,6,7
 270 59 270 59 297.5 90.5 c 128,-1,8
 325 122 325 122 325 186 c 0,9,10
 325 242 325 242 300.5 271 c 128,-1,11
 276 300 276 300 214 326 c 2,12,-1
 173 342 l 2,13,14
 103 370 103 370 68.5 413 c 128,-1,15
 34 456 34 456 34 528 c 0,16,17
 34 614 34 614 82.5 665.5 c 128,-1,18
 131 717 131 717 216 717 c 0,19,20
 297 717 297 717 344 669.5 c 128,-1,21
 391 622 391 622 395 526 c 1,22,-1
 325 526 l 1,23,24
 318 650 318 650 215 650 c 0,25,26
 162 650 162 650 135.5 619.5 c 128,-1,27
 109 589 109 589 109 532 c 0,28,29
 109 482 109 482 133 453.5 c 128,-1,30
 157 425 157 425 215 402 c 2,31,-1
 257 386 l 2,32,33
 328 358 328 358 363.5 313 c 128,-1,34
 399 268 399 268 399 187 c 0,35,36
 399 94 399 94 351 43.5 c 128,-1,37
 303 -7 303 -7 212 -7 c 0,38,0
 122 -7 122 -7 75.5 44 c 128,-1,1
EndSplineSet
EndChar

StartChar: T
Encoding: 84 84 55
Width: 376
GlyphClass: 2
Flags: W
LayerCount: 2
Fore
SplineSet
371 640 m 1,0,-1
 225 640 l 1,1,-1
 225 0 l 1,2,-1
 152 0 l 1,3,-1
 152 640 l 1,4,-1
 6 640 l 1,5,-1
 6 707 l 1,6,-1
 371 707 l 1,7,-1
 371 640 l 1,0,-1
EndSplineSet
EndChar

StartChar: U
Encoding: 85 85 56
Width: 491
GlyphClass: 2
Flags: W
LayerCount: 2
Fore
SplineSet
151 15.5 m 128,-1,1
 109 39 109 39 85 82 c 128,-1,2
 61 125 61 125 61 180 c 2,3,-1
 61 707 l 1,4,-1
 136 707 l 1,5,-1
 136 184 l 2,6,7
 136 124 136 124 165.5 91.5 c 128,-1,8
 195 59 195 59 246 59 c 256,9,10
 297 59 297 59 326 92 c 128,-1,11
 355 125 355 125 355 184 c 2,12,-1
 355 707 l 1,13,-1
 430 707 l 1,14,-1
 430 180 l 2,15,16
 430 95 430 95 379 43.5 c 128,-1,17
 328 -8 328 -8 246 -8 c 0,18,0
 193 -8 193 -8 151 15.5 c 128,-1,1
EndSplineSet
EndChar

StartChar: V
Encoding: 86 86 57
Width: 433
GlyphClass: 2
Flags: W
LayerCount: 2
Fore
SplineSet
9 707 m 1,0,-1
 89 707 l 1,1,-1
 217 117 l 1,2,-1
 344 707 l 1,3,-1
 424 707 l 1,4,-1
 253 0 l 1,5,-1
 181 0 l 1,6,-1
 9 707 l 1,0,-1
EndSplineSet
EndChar

StartChar: W
Encoding: 87 87 58
Width: 670
GlyphClass: 2
Flags: W
LayerCount: 2
Fore
SplineSet
662 707 m 1,0,-1
 524 0 l 1,1,-1
 444 0 l 1,2,-1
 336 596 l 1,3,-1
 228 0 l 1,4,-1
 148 0 l 1,5,-1
 9 707 l 1,6,-1
 87 707 l 1,7,-1
 189 113 l 1,8,-1
 289 707 l 1,9,-1
 387 707 l 1,10,-1
 487 113 l 1,11,-1
 588 707 l 1,12,-1
 662 707 l 1,0,-1
EndSplineSet
EndChar

StartChar: X
Encoding: 88 88 59
Width: 425
GlyphClass: 2
Flags: W
LayerCount: 2
Fore
SplineSet
170 367 m 1,0,-1
 23 707 l 1,1,-1
 106 707 l 1,2,-1
 214 441 l 1,3,-1
 319 707 l 1,4,-1
 403 707 l 1,5,-1
 255 368 l 1,6,-1
 417 0 l 1,7,-1
 332 0 l 1,8,-1
 213 293 l 1,9,-1
 93 0 l 1,10,-1
 9 0 l 1,11,-1
 170 367 l 1,0,-1
EndSplineSet
EndChar

StartChar: Y
Encoding: 89 89 60
Width: 401
GlyphClass: 2
Flags: W
LayerCount: 2
Fore
SplineSet
238 294 m 1,0,-1
 238 0 l 1,1,-1
 164 0 l 1,2,-1
 164 294 l 1,3,-1
 9 707 l 1,4,-1
 91 707 l 1,5,-1
 201 383 l 1,6,-1
 310 707 l 1,7,-1
 392 707 l 1,8,-1
 238 294 l 1,0,-1
EndSplineSet
EndChar

StartChar: Z
Encoding: 90 90 61
Width: 394
GlyphClass: 2
Flags: W
LayerCount: 2
Fore
SplineSet
367 67 m 1,0,-1
 367 0 l 1,1,-1
 31 0 l 1,2,-1
 31 67 l 1,3,-1
 286 640 l 1,4,-1
 42 640 l 1,5,-1
 42 707 l 1,6,-1
 359 707 l 1,7,-1
 359 640 l 1,8,-1
 103 67 l 1,9,-1
 367 67 l 1,0,-1
EndSplineSet
EndChar

StartChar: bracketleft
Encoding: 91 91 62
Width: 259
GlyphClass: 2
Flags: W
LayerCount: 2
Fore
SplineSet
61 758 m 1,0,-1
 208 758 l 1,1,-1
 208 691 l 1,2,-1
 132 691 l 1,3,-1
 132 -19 l 1,4,-1
 208 -19 l 1,5,-1
 208 -86 l 1,6,-1
 61 -86 l 1,7,-1
 61 758 l 1,0,-1
EndSplineSet
Substitution2: "'rtla' Right to Left Alternates lookup 0 subtable" bracketright
EndChar

StartChar: backslash
Encoding: 92 92 63
Width: 303
GlyphClass: 2
Flags: W
LayerCount: 2
Fore
SplineSet
51 707 m 1,0,-1
 118 707 l 1,1,-1
 252 -10 l 1,2,-1
 185 -10 l 1,3,-1
 51 707 l 1,0,-1
EndSplineSet
EndChar

StartChar: bracketright
Encoding: 93 93 64
Width: 258
GlyphClass: 2
Flags: W
LayerCount: 2
Fore
SplineSet
51 -19 m 1,0,-1
 126 -19 l 1,1,-1
 126 691 l 1,2,-1
 51 691 l 1,3,-1
 51 758 l 1,4,-1
 197 758 l 1,5,-1
 197 -86 l 1,6,-1
 51 -86 l 1,7,-1
 51 -19 l 1,0,-1
EndSplineSet
Substitution2: "'rtla' Right to Left Alternates lookup 0 subtable" bracketleft
EndChar

StartChar: asciicircum
Encoding: 94 94 65
Width: 430
GlyphClass: 2
Flags: W
LayerCount: 2
Fore
SplineSet
181 707 m 1,0,-1
 248 707 l 1,1,-1
 393 287 l 1,2,-1
 326 287 l 1,3,-1
 215 614 l 1,4,-1
 103 287 l 1,5,-1
 37 287 l 1,6,-1
 181 707 l 1,0,-1
EndSplineSet
EndChar

StartChar: underscore
Encoding: 95 95 66
Width: 425
GlyphClass: 2
Flags: W
LayerCount: 2
Fore
SplineSet
0 -55 m 1,0,-1
 426 -55 l 1,1,-1
 426 -106 l 1,2,-1
 0 -106 l 1,3,-1
 0 -55 l 1,0,-1
EndSplineSet
EndChar

StartChar: grave
Encoding: 96 96 67
Width: 513
GlyphClass: 2
Flags: W
LayerCount: 2
Fore
SplineSet
275 590 m 1,0,-1
 164 722 l 1,1,-1
 240 722 l 1,2,-1
 333 590 l 1,3,-1
 275 590 l 1,0,-1
EndSplineSet
EndChar

StartChar: a
Encoding: 97 97 68
Width: 410
GlyphClass: 2
Flags: W
LayerCount: 2
Fore
SplineSet
311 497.5 m 128,-1,1
 350 457 350 457 350 384 c 2,2,-1
 350 0 l 1,3,-1
 284 0 l 1,4,-1
 284 49 l 1,5,6
 248 -8 248 -8 176 -8 c 0,7,8
 110 -8 110 -8 75.5 33.5 c 128,-1,9
 41 75 41 75 41 150 c 0,10,11
 41 222 41 222 81.5 262 c 128,-1,12
 122 302 122 302 199 302 c 2,13,-1
 281 302 l 1,14,-1
 281 387 l 2,15,16
 281 476 281 476 199 476 c 0,17,18
 161 476 161 476 140.5 455.5 c 128,-1,19
 120 435 120 435 120 398 c 2,20,-1
 120 390 l 1,21,-1
 54 390 l 1,22,-1
 54 399 l 2,23,24
 54 464 54 464 93.5 501 c 128,-1,25
 133 538 133 538 199 538 c 0,26,0
 272 538 272 538 311 497.5 c 128,-1,1
257.5 78 m 128,-1,28
 281 104 281 104 281 152 c 2,29,-1
 281 250 l 1,30,-1
 206 250 l 2,31,32
 111 250 111 250 111 151 c 0,33,34
 111 53 111 53 193 52 c 0,35,27
 234 52 234 52 257.5 78 c 128,-1,28
EndSplineSet
EndChar

StartChar: b
Encoding: 98 98 69
Width: 421
GlyphClass: 2
Flags: W
LayerCount: 2
Fore
SplineSet
130 48 m 1,1,-1
 130 0 l 1,2,-1
 60 0 l 1,3,-1
 60 707 l 1,4,-1
 130 707 l 1,5,-1
 130 478 l 1,6,7
 165 537 165 537 230 538 c 0,8,9
 293 538 293 538 332 493.5 c 128,-1,10
 371 449 371 449 371 357 c 2,11,-1
 371 172 l 2,12,13
 371 81 371 81 332.5 36.5 c 128,-1,14
 294 -8 294 -8 231 -8 c 0,15,0
 165 -8 165 -8 130 48 c 1,1,-1
280 83.5 m 128,-1,17
 301 113 301 113 301 180 c 2,18,-1
 301 349 l 2,19,20
 301 475 301 475 218 475 c 0,21,22
 175 475 175 475 152.5 443 c 128,-1,23
 130 411 130 411 130 348 c 2,24,-1
 130 179 l 2,25,26
 130 118 130 118 152.5 86 c 128,-1,27
 175 54 175 54 218 54 c 0,28,16
 259 54 259 54 280 83.5 c 128,-1,17
EndSplineSet
EndChar

StartChar: c
Encoding: 99 99 70
Width: 418
GlyphClass: 2
Flags: W
LayerCount: 2
Fore
SplineSet
93 35.5 m 128,-1,1
 51 79 51 79 51 172 c 2,2,-1
 51 357 l 2,3,4
 51 450 51 450 93 494 c 128,-1,5
 135 538 135 538 211 538 c 0,6,7
 286 538 286 538 327 496 c 128,-1,8
 368 454 368 454 368 369 c 2,9,-1
 368 354 l 1,10,-1
 298 354 l 1,11,-1
 298 369 l 2,12,13
 298 475 298 475 212 475 c 0,14,15
 167 475 167 475 144 446.5 c 128,-1,16
 121 418 121 418 121 349 c 2,17,-1
 121 180 l 2,18,19
 121 111 121 111 144 82.5 c 128,-1,20
 167 54 167 54 211 54 c 0,21,22
 298 54 298 54 298 161 c 2,23,-1
 298 175 l 1,24,-1
 368 175 l 1,25,-1
 368 162 l 2,26,27
 368 77 368 77 327 34.5 c 128,-1,28
 286 -8 286 -8 212 -8 c 0,29,0
 135 -8 135 -8 93 35.5 c 128,-1,1
EndSplineSet
EndChar

StartChar: d
Encoding: 100 100 71
Width: 421
GlyphClass: 2
Flags: W
LayerCount: 2
Fore
SplineSet
89.5 36.5 m 128,-1,1
 51 81 51 81 51 172 c 2,2,-1
 51 357 l 2,3,4
 51 448 51 448 89.5 493 c 128,-1,5
 128 538 128 538 190 538 c 0,6,7
 257 538 257 538 292 478 c 1,8,-1
 292 707 l 1,9,-1
 361 707 l 1,10,-1
 361 0 l 1,11,-1
 292 0 l 1,12,-1
 292 48 l 1,13,14
 257 -8 257 -8 190 -8 c 0,15,0
 128 -8 128 -8 89.5 36.5 c 128,-1,1
269.5 86 m 128,-1,17
 292 118 292 118 292 179 c 2,18,-1
 292 348 l 2,19,20
 292 475 292 475 204 475 c 0,21,22
 121 475 121 475 121 349 c 2,23,-1
 121 180 l 2,24,25
 121 112 121 112 142 83 c 128,-1,26
 163 54 163 54 204 54 c 0,27,16
 247 54 247 54 269.5 86 c 128,-1,17
EndSplineSet
EndChar

StartChar: e
Encoding: 101 101 72
Width: 417
GlyphClass: 2
Flags: W
LayerCount: 2
Fore
SplineSet
121 244 m 1,0,-1
 121 181 l 2,1,2
 121 111 121 111 145 81.5 c 128,-1,3
 169 52 169 52 213 52 c 0,4,5
 297 52 297 52 297 158 c 2,6,-1
 297 162 l 1,7,-1
 366 162 l 1,8,-1
 366 159 l 2,9,10
 366 76 366 76 325.5 34 c 128,-1,11
 285 -8 285 -8 211 -8 c 0,12,13
 51 -8 51 -8 51 180 c 2,14,-1
 51 351 l 2,15,16
 51 443 51 443 92.5 490.5 c 128,-1,17
 134 538 134 538 208 538 c 256,18,19
 282 538 282 538 324.5 490.5 c 128,-1,20
 367 443 367 443 367 351 c 2,21,-1
 367 244 l 1,22,-1
 121 244 l 1,0,-1
143.5 446 m 128,-1,24
 121 417 121 417 121 349 c 2,25,-1
 121 297 l 1,26,-1
 298 297 l 1,27,-1
 298 351 l 2,28,29
 298 418 298 418 275 446.5 c 128,-1,30
 252 475 252 475 209 475 c 256,31,23
 166 475 166 475 143.5 446 c 128,-1,24
EndSplineSet
EndChar

StartChar: f
Encoding: 102 102 73
Width: 294
GlyphClass: 2
Flags: W
LayerCount: 2
Fore
SplineSet
189.5 633.5 m 128,-1,1
 173 616 173 616 173 578 c 2,2,-1
 173 529 l 1,3,-1
 264 529 l 1,4,-1
 264 475 l 1,5,-1
 173 475 l 1,6,-1
 173 0 l 1,7,-1
 103 0 l 1,8,-1
 103 475 l 1,9,-1
 40 475 l 1,10,-1
 40 529 l 1,11,-1
 103 529 l 1,12,-1
 103 568 l 2,13,14
 103 636 103 636 137.5 671.5 c 128,-1,15
 172 707 172 707 238 707 c 2,16,-1
 264 707 l 1,17,-1
 264 651 l 1,18,-1
 244 651 l 2,19,0
 206 651 206 651 189.5 633.5 c 128,-1,1
EndSplineSet
EndChar

StartChar: g
Encoding: 103 103 74
Width: 421
GlyphClass: 2
Flags: W
LayerCount: 2
Fore
SplineSet
97.5 -130 m 128,-1,1
 59 -94 59 -94 57 -32 c 1,2,-1
 124 -32 l 1,3,4
 126 -66 126 -66 147.5 -85.5 c 128,-1,5
 169 -105 169 -105 206 -105 c 0,6,7
 251 -105 251 -105 271.5 -76.5 c 128,-1,8
 292 -48 292 -48 292 10 c 2,9,-1
 292 88 l 1,10,11
 258 33 258 33 190 33 c 0,12,13
 128 33 128 33 89.5 77.5 c 128,-1,14
 51 122 51 122 51 212 c 2,15,-1
 51 358 l 2,16,17
 51 448 51 448 89.5 493 c 128,-1,18
 128 538 128 538 190 538 c 0,19,20
 258 538 258 538 292 478 c 1,21,-1
 292 529 l 1,22,-1
 361 529 l 1,23,-1
 361 16 l 2,24,25
 361 -68 361 -68 323 -117 c 128,-1,26
 285 -166 285 -166 206 -166 c 0,27,0
 136 -166 136 -166 97.5 -130 c 128,-1,1
269.5 127 m 128,-1,29
 292 159 292 159 292 220 c 2,30,-1
 292 349 l 2,31,32
 292 475 292 475 204 475 c 0,33,34
 165 475 165 475 143 446.5 c 128,-1,35
 121 418 121 418 121 350 c 2,36,-1
 121 220 l 2,37,38
 121 152 121 152 142 123.5 c 128,-1,39
 163 95 163 95 204 95 c 0,40,28
 247 95 247 95 269.5 127 c 128,-1,29
EndSplineSet
EndChar

StartChar: h
Encoding: 104 104 75
Width: 425
GlyphClass: 2
Flags: W
LayerCount: 2
Fore
SplineSet
60 707 m 1,0,-1
 130 707 l 1,1,-1
 130 483 l 1,2,3
 146 509 146 509 173.5 523.5 c 128,-1,4
 201 538 201 538 232 538 c 0,5,6
 295 538 295 538 330.5 497.5 c 128,-1,7
 366 457 366 457 366 383 c 2,8,-1
 366 0 l 1,9,-1
 296 0 l 1,10,-1
 296 380 l 2,11,12
 296 426 296 426 273.5 450.5 c 128,-1,13
 251 475 251 475 213 475 c 0,14,15
 176 475 176 475 153 450.5 c 128,-1,16
 130 426 130 426 130 380 c 2,17,-1
 130 0 l 1,18,-1
 60 0 l 1,19,-1
 60 707 l 1,0,-1
EndSplineSet
EndChar

StartChar: i
Encoding: 105 105 76
Width: 203
GlyphClass: 2
Flags: W
LayerCount: 2
Fore
SplineSet
67 529 m 1,0,-1
 136 529 l 1,1,-1
 136 0 l 1,2,-1
 67 0 l 1,3,-1
 67 529 l 1,0,-1
67 706 m 1,4,-1
 137 706 l 1,5,-1
 137 613 l 1,6,-1
 67 613 l 1,7,-1
 67 706 l 1,4,-1
EndSplineSet
EndChar

StartChar: j
Encoding: 106 106 77
Width: 199
GlyphClass: 2
Flags: W
LayerCount: 2
Fore
SplineSet
62 706 m 1,0,-1
 133 706 l 1,1,-1
 133 613 l 1,2,-1
 62 613 l 1,3,-1
 62 706 l 1,0,-1
-26 -93 m 1,4,-1
 -10 -93 l 2,5,6
 63 -93 63 -93 62 -12 c 2,7,-1
 62 529 l 1,8,-1
 133 529 l 1,9,-1
 133 -15 l 2,10,11
 133 -84 133 -84 96.5 -120 c 128,-1,12
 60 -156 60 -156 -8 -156 c 2,13,-1
 -26 -156 l 1,14,-1
 -26 -93 l 1,4,-1
EndSplineSet
EndChar

StartChar: k
Encoding: 107 107 78
Width: 418
GlyphClass: 2
Flags: W
LayerCount: 2
Fore
SplineSet
202 262 m 1,0,-1
 130 157 l 1,1,-1
 130 0 l 1,2,-1
 60 0 l 1,3,-1
 60 707 l 1,4,-1
 130 707 l 1,5,-1
 130 254 l 1,6,-1
 307 529 l 1,7,-1
 384 529 l 1,8,-1
 245 326 l 1,9,-1
 403 0 l 1,10,-1
 324 0 l 1,11,-1
 202 262 l 1,0,-1
EndSplineSet
EndChar

StartChar: l
Encoding: 108 108 79
Width: 239
GlyphClass: 2
Flags: W
LayerCount: 2
Fore
SplineSet
96.5 36 m 128,-1,1
 60 72 60 72 60 140 c 2,2,-1
 60 707 l 1,3,-1
 131 707 l 1,4,-1
 131 143 l 2,5,6
 131 62 131 62 204 62 c 2,7,-1
 219 62 l 1,8,-1
 219 0 l 1,9,-1
 202 0 l 2,10,0
 133 0 133 0 96.5 36 c 128,-1,1
EndSplineSet
EndChar

StartChar: m
Encoding: 109 109 80
Width: 661
GlyphClass: 2
Flags: W
LayerCount: 2
Fore
SplineSet
60 529 m 1,0,-1
 129 529 l 1,1,-1
 129 481 l 1,2,3
 144 507 144 507 171.5 522.5 c 128,-1,4
 199 538 199 538 232 538 c 0,5,6
 270 538 270 538 300 520 c 128,-1,7
 330 502 330 502 347 471 c 1,8,9
 366 503 366 503 396.5 520.5 c 128,-1,10
 427 538 427 538 464 538 c 0,11,12
 532 538 532 538 566.5 497.5 c 128,-1,13
 601 457 601 457 601 383 c 2,14,-1
 601 0 l 1,15,-1
 530 0 l 1,16,-1
 530 380 l 2,17,18
 530 426 530 426 508 450.5 c 128,-1,19
 486 475 486 475 450 475 c 0,20,21
 412 475 412 475 389 450 c 128,-1,22
 366 425 366 425 366 381 c 2,23,-1
 366 0 l 1,24,-1
 296 0 l 1,25,-1
 296 380 l 2,26,27
 296 425 296 425 273.5 450 c 128,-1,28
 251 475 251 475 213 475 c 0,29,30
 176 475 176 475 153.5 450 c 128,-1,31
 131 425 131 425 131 380 c 2,32,-1
 131 0 l 1,33,-1
 60 0 l 1,34,-1
 60 529 l 1,0,-1
EndSplineSet
EndChar

StartChar: n
Encoding: 110 110 81
Width: 425
GlyphClass: 2
Flags: W
LayerCount: 2
Fore
SplineSet
60 529 m 1,0,-1
 128 529 l 1,1,-1
 128 481 l 1,2,3
 143 507 143 507 171 522.5 c 128,-1,4
 199 538 199 538 232 538 c 0,5,6
 295 538 295 538 330.5 497 c 128,-1,7
 366 456 366 456 366 383 c 2,8,-1
 366 0 l 1,9,-1
 296 0 l 1,10,-1
 296 380 l 2,11,12
 296 426 296 426 273.5 450.5 c 128,-1,13
 251 475 251 475 213 475 c 0,14,15
 176 475 176 475 153 450 c 128,-1,16
 130 425 130 425 130 380 c 2,17,-1
 130 0 l 1,18,-1
 60 0 l 1,19,-1
 60 529 l 1,0,-1
EndSplineSet
EndChar

StartChar: o
Encoding: 111 111 82
Width: 418
GlyphClass: 2
Flags: W
LayerCount: 2
Fore
SplineSet
93 35.5 m 128,-1,1
 51 79 51 79 51 172 c 2,2,-1
 51 357 l 2,3,4
 51 450 51 450 93 494 c 128,-1,5
 135 538 135 538 211 538 c 0,6,7
 285 538 285 538 326.5 494 c 128,-1,8
 368 450 368 450 368 357 c 2,9,-1
 368 172 l 2,10,11
 368 80 368 80 326.5 36 c 128,-1,12
 285 -8 285 -8 211 -8 c 0,13,0
 135 -8 135 -8 93 35.5 c 128,-1,1
275.5 83.5 m 128,-1,15
 298 113 298 113 298 180 c 2,16,-1
 298 349 l 2,17,18
 298 417 298 417 275.5 446 c 128,-1,19
 253 475 253 475 210 475 c 256,20,21
 167 475 167 475 144 446.5 c 128,-1,22
 121 418 121 418 121 349 c 2,23,-1
 121 180 l 2,24,25
 121 111 121 111 144 82.5 c 128,-1,26
 167 54 167 54 210 54 c 256,27,14
 253 54 253 54 275.5 83.5 c 128,-1,15
EndSplineSet
EndChar

StartChar: p
Encoding: 112 112 83
Width: 421
GlyphClass: 2
Flags: W
LayerCount: 2
Fore
SplineSet
60 529 m 1,0,-1
 130 529 l 1,1,-1
 130 478 l 1,2,3
 165 537 165 537 230 538 c 0,4,5
 293 538 293 538 332 493.5 c 128,-1,6
 371 449 371 449 371 357 c 2,7,-1
 371 172 l 2,8,9
 371 81 371 81 332.5 36.5 c 128,-1,10
 294 -8 294 -8 231 -8 c 0,11,12
 164 -8 164 -8 130 47 c 1,13,-1
 130 -156 l 1,14,-1
 60 -156 l 1,15,-1
 60 529 l 1,0,-1
280 83.5 m 128,-1,17
 301 113 301 113 301 180 c 2,18,-1
 301 349 l 2,19,20
 301 475 301 475 218 475 c 0,21,22
 175 475 175 475 152.5 443 c 128,-1,23
 130 411 130 411 130 348 c 2,24,-1
 130 179 l 2,25,26
 130 118 130 118 152.5 86 c 128,-1,27
 175 54 175 54 218 54 c 0,28,16
 259 54 259 54 280 83.5 c 128,-1,17
EndSplineSet
EndChar

StartChar: q
Encoding: 113 113 84
Width: 421
GlyphClass: 2
Flags: W
LayerCount: 2
Fore
SplineSet
292 47 m 1,0,1
 257 -8 257 -8 190 -8 c 0,2,3
 128 -8 128 -8 89.5 36.5 c 128,-1,4
 51 81 51 81 51 172 c 2,5,-1
 51 357 l 2,6,7
 51 448 51 448 89.5 493 c 128,-1,8
 128 538 128 538 191 538 c 0,9,10
 257 538 257 538 292 478 c 1,11,-1
 292 529 l 1,12,-1
 361 529 l 1,13,-1
 361 -156 l 1,14,-1
 292 -156 l 1,15,-1
 292 47 l 1,0,1
269.5 86 m 128,-1,17
 292 118 292 118 292 179 c 2,18,-1
 292 348 l 2,19,20
 292 475 292 475 204 475 c 0,21,22
 121 475 121 475 121 349 c 2,23,-1
 121 180 l 2,24,25
 121 112 121 112 142 83 c 128,-1,26
 163 54 163 54 204 54 c 0,27,16
 247 54 247 54 269.5 86 c 128,-1,17
EndSplineSet
EndChar

StartChar: r
Encoding: 114 114 85
Width: 296
GlyphClass: 2
Flags: W
LayerCount: 2
Fore
SplineSet
60 529 m 1,0,-1
 128 529 l 1,1,-1
 128 477 l 1,2,3
 145 508 145 508 174 523 c 128,-1,4
 203 538 203 538 239 538 c 0,5,6
 261 538 261 538 276 534 c 1,7,-1
 276 466 l 1,8,9
 248 475 248 475 225 475 c 0,10,11
 183 475 183 475 156.5 448.5 c 128,-1,12
 130 422 130 422 130 376 c 2,13,-1
 130 0 l 1,14,-1
 60 0 l 1,15,-1
 60 529 l 1,0,-1
EndSplineSet
EndChar

StartChar: s
Encoding: 115 115 86
Width: 391
GlyphClass: 2
Flags: W
LayerCount: 2
Fore
SplineSet
82.5 32.5 m 128,-1,1
 41 73 41 73 41 142 c 2,2,-1
 41 148 l 1,3,-1
 105 148 l 1,4,-1
 105 142 l 2,5,6
 105 99 105 99 130 76 c 128,-1,7
 155 53 155 53 198 53 c 0,8,9
 238 53 238 53 262 74 c 128,-1,10
 286 95 286 95 286 138 c 0,11,12
 286 172 286 172 269.5 191.5 c 128,-1,13
 253 211 253 211 214 227 c 2,14,-1
 147 255 l 2,15,16
 46 297 46 297 46 393 c 0,17,18
 46 459 46 459 87.5 498.5 c 128,-1,19
 129 538 129 538 199 538 c 256,20,21
 269 538 269 538 309 498 c 128,-1,22
 349 458 349 458 349 390 c 2,23,-1
 349 377 l 1,24,-1
 285 377 l 1,25,-1
 285 383 l 2,26,27
 285 428 285 428 262.5 452.5 c 128,-1,28
 240 477 240 477 198 477 c 0,29,30
 160 477 160 477 138 456 c 128,-1,31
 116 435 116 435 116 398 c 0,32,33
 116 370 116 370 130 350 c 128,-1,34
 144 330 144 330 180 314 c 2,35,-1
 247 287 l 2,36,37
 301 264 301 264 328 232.5 c 128,-1,38
 355 201 355 201 355 143 c 0,39,40
 355 71 355 71 312.5 31.5 c 128,-1,41
 270 -8 270 -8 196 -8 c 0,42,0
 124 -8 124 -8 82.5 32.5 c 128,-1,1
EndSplineSet
EndChar

StartChar: t
Encoding: 116 116 87
Width: 302
GlyphClass: 2
Flags: W
LayerCount: 2
Fore
SplineSet
165 475 m 1,0,-1
 165 142 l 2,1,2
 165 101 165 101 184.5 81 c 128,-1,3
 204 61 204 61 244 61 c 2,4,-1
 258 61 l 1,5,-1
 258 0 l 1,6,-1
 241 0 l 2,7,8
 96 0 96 0 95 139 c 2,9,-1
 95 475 l 1,10,-1
 28 475 l 1,11,-1
 28 529 l 1,12,-1
 95 529 l 1,13,-1
 95 640 l 1,14,-1
 165 672 l 1,15,-1
 165 529 l 1,16,-1
 266 529 l 1,17,-1
 266 475 l 1,18,-1
 165 475 l 1,0,-1
EndSplineSet
EndChar

StartChar: u
Encoding: 117 117 88
Width: 425
GlyphClass: 2
Flags: W
LayerCount: 2
Fore
SplineSet
97.5 34.5 m 128,-1,1
 60 77 60 77 60 163 c 2,2,-1
 60 529 l 1,3,-1
 130 529 l 1,4,-1
 130 210 l 2,5,6
 130 126 130 126 147 90 c 128,-1,7
 164 54 164 54 214 54 c 0,8,9
 248 54 248 54 265.5 69.5 c 128,-1,10
 283 85 283 85 289.5 118 c 128,-1,11
 296 151 296 151 296 210 c 2,12,-1
 296 529 l 1,13,-1
 366 529 l 1,14,-1
 366 163 l 2,15,16
 366 77 366 77 328.5 34.5 c 128,-1,17
 291 -8 291 -8 213 -8 c 256,18,0
 135 -8 135 -8 97.5 34.5 c 128,-1,1
EndSplineSet
EndChar

StartChar: v
Encoding: 118 118 89
Width: 379
GlyphClass: 2
Flags: W
LayerCount: 2
Fore
SplineSet
15 529 m 1,0,-1
 91 529 l 1,1,-1
 190 111 l 1,2,-1
 289 529 l 1,3,-1
 365 529 l 1,4,-1
 224 0 l 1,5,-1
 155 0 l 1,6,-1
 15 529 l 1,0,-1
EndSplineSet
EndChar

StartChar: w
Encoding: 119 119 90
Width: 590
GlyphClass: 2
Flags: W
LayerCount: 2
Fore
SplineSet
15 529 m 1,0,-1
 91 529 l 1,1,-1
 171 113 l 1,2,-1
 264 529 l 1,3,-1
 324 529 l 1,4,-1
 419 113 l 1,5,-1
 499 529 l 1,6,-1
 575 529 l 1,7,-1
 454 0 l 1,8,-1
 387 0 l 1,9,-1
 294 400 l 1,10,-1
 203 0 l 1,11,-1
 135 0 l 1,12,-1
 15 529 l 1,0,-1
EndSplineSet
EndChar

StartChar: x
Encoding: 120 120 91
Width: 357
GlyphClass: 2
Flags: W
LayerCount: 2
Fore
SplineSet
267 0 m 1,0,-1
 177 197 l 1,1,-1
 89 0 l 1,2,-1
 15 0 l 1,3,-1
 141 275 l 1,4,-1
 25 529 l 1,5,-1
 99 529 l 1,6,-1
 180 354 l 1,7,-1
 257 529 l 1,8,-1
 332 529 l 1,9,-1
 214 280 l 1,10,-1
 342 0 l 1,11,-1
 267 0 l 1,0,-1
EndSplineSet
EndChar

StartChar: y
Encoding: 121 121 92
Width: 379
GlyphClass: 2
Flags: W
LayerCount: 2
Fore
SplineSet
365 529 m 1,0,-1
 210 -50 l 2,1,2
 195 -109 195 -109 158 -133.5 c 128,-1,3
 121 -158 121 -158 56 -158 c 2,4,-1
 46 -158 l 1,5,-1
 46 -95 l 1,6,-1
 63 -95 l 2,7,8
 103 -95 103 -95 124.5 -80 c 128,-1,9
 146 -65 146 -65 155 -29 c 2,10,-1
 159 -12 l 1,11,-1
 15 529 l 1,12,-1
 91 529 l 1,13,-1
 191 125 l 1,14,-1
 289 529 l 1,15,-1
 365 529 l 1,0,-1
EndSplineSet
EndChar

StartChar: z
Encoding: 122 122 93
Width: 385
GlyphClass: 2
Flags: W
LayerCount: 2
Fore
SplineSet
334 466 m 1,0,-1
 126 63 l 1,1,-1
 334 63 l 1,2,-1
 334 0 l 1,3,-1
 51 0 l 1,4,-1
 51 63 l 1,5,-1
 259 466 l 1,6,-1
 51 466 l 1,7,-1
 51 529 l 1,8,-1
 334 529 l 1,9,-1
 334 466 l 1,0,-1
EndSplineSet
EndChar

StartChar: braceleft
Encoding: 123 123 94
Width: 314
GlyphClass: 2
Flags: W
LayerCount: 2
Fore
SplineSet
144.5 -57.5 m 128,-1,1
 119 -29 119 -29 119 30 c 2,2,-1
 119 228 l 2,3,4
 119 269 119 269 104 287 c 128,-1,5
 89 305 89 305 51 306 c 1,6,-1
 51 371 l 1,7,8
 89 372 89 372 104 390 c 128,-1,9
 119 408 119 408 119 451 c 2,10,-1
 119 642 l 2,11,12
 119 700 119 700 144.5 729 c 128,-1,13
 170 758 170 758 223 758 c 2,14,-1
 263 758 l 1,15,-1
 263 691 l 1,16,-1
 238 691 l 2,17,18
 193 691 193 691 193 641 c 2,19,-1
 193 467 l 2,20,21
 193 407 193 407 181 379.5 c 128,-1,22
 169 352 169 352 134 339 c 1,23,24
 169 324 169 324 181 297 c 128,-1,25
 193 270 193 270 193 210 c 2,26,-1
 193 31 l 2,27,28
 193 -19 193 -19 238 -19 c 2,29,-1
 263 -19 l 1,30,-1
 263 -86 l 1,31,-1
 223 -86 l 2,32,0
 170 -86 170 -86 144.5 -57.5 c 128,-1,1
EndSplineSet
Substitution2: "'rtla' Right to Left Alternates lookup 0 subtable" braceright
EndChar

StartChar: bar
Encoding: 124 124 95
Width: 272
GlyphClass: 2
Flags: W
LayerCount: 2
Fore
SplineSet
102 758 m 1,0,-1
 170 758 l 1,1,-1
 170 -85 l 1,2,-1
 102 -85 l 1,3,-1
 102 758 l 1,0,-1
EndSplineSet
EndChar

StartChar: braceright
Encoding: 125 125 96
Width: 314
GlyphClass: 2
Flags: W
LayerCount: 2
Fore
SplineSet
51 -19 m 1,0,-1
 76 -19 l 2,1,2
 121 -19 121 -19 121 31 c 2,3,-1
 121 210 l 2,4,5
 121 270 121 270 132.5 297 c 128,-1,6
 144 324 144 324 180 339 c 1,7,8
 144 352 144 352 132.5 379.5 c 128,-1,9
 121 407 121 407 121 467 c 2,10,-1
 121 641 l 2,11,12
 121 691 121 691 76 691 c 2,13,-1
 51 691 l 1,14,-1
 51 758 l 1,15,-1
 91 758 l 2,16,17
 144 758 144 758 170 729 c 128,-1,18
 196 700 196 700 196 642 c 2,19,-1
 196 451 l 2,20,21
 196 408 196 408 210.5 390 c 128,-1,22
 225 372 225 372 263 371 c 1,23,-1
 263 306 l 1,24,25
 225 305 225 305 210.5 287 c 128,-1,26
 196 269 196 269 196 228 c 2,27,-1
 196 30 l 2,28,29
 196 -28 196 -28 170 -57 c 128,-1,30
 144 -86 144 -86 91 -86 c 2,31,-1
 51 -86 l 1,32,-1
 51 -19 l 1,0,-1
EndSplineSet
Substitution2: "'rtla' Right to Left Alternates lookup 0 subtable" braceleft
EndChar

StartChar: asciitilde
Encoding: 126 126 97
Width: 430
GlyphClass: 2
Flags: W
LayerCount: 2
Fore
SplineSet
244 229 m 128,-1,1
 226 237 226 237 204 251 c 0,2,3
 170 274 170 274 151 273 c 0,4,5
 133 273 133 273 118.5 262 c 128,-1,6
 104 251 104 251 86 218 c 1,7,-1
 31 252 l 1,8,9
 54 299 54 299 82.5 321.5 c 128,-1,10
 111 344 111 344 146 344 c 0,11,12
 168 344 168 344 185.5 336.5 c 128,-1,13
 203 329 203 329 226 313 c 0,14,15
 245 301 245 301 256.5 296 c 128,-1,16
 268 291 268 291 280 291 c 0,17,18
 299 291 299 291 312.5 302 c 128,-1,19
 326 313 326 313 344 347 c 1,20,-1
 399 313 l 1,21,22
 376 265 376 265 348.5 243 c 128,-1,23
 321 221 321 221 284 221 c 0,24,0
 262 221 262 221 244 229 c 128,-1,1
EndSplineSet
EndChar

StartChar: exclamdown
Encoding: 161 161 99
Width: 208
GlyphClass: 2
Flags: W
LayerCount: 2
Fore
SplineSet
69 529 m 1,0,-1
 148 529 l 1,1,-1
 148 430 l 1,2,-1
 69 430 l 1,3,-1
 69 529 l 1,0,-1
80 333 m 1,4,-1
 138 333 l 1,5,-1
 157 -156 l 1,6,-1
 62 -156 l 1,7,-1
 80 333 l 1,4,-1
EndSplineSet
EndChar

StartChar: cent
Encoding: 162 162 100
Width: 418
GlyphClass: 2
Flags: W
LayerCount: 2
Fore
SplineSet
298 354 m 1,0,-1
 298 369 l 2,1,2
 298 457 298 457 241 471 c 1,3,-1
 241 58 l 1,4,5
 298 74 298 74 298 161 c 2,6,-1
 298 175 l 1,7,-1
 368 175 l 1,8,-1
 368 162 l 2,9,10
 368 86 368 86 334.5 44 c 128,-1,11
 301 2 301 2 241 -6 c 1,12,-1
 241 -102 l 1,13,-1
 186 -102 l 1,14,-1
 186 -7 l 1,15,16
 51 8 51 8 51 172 c 2,17,-1
 51 357 l 2,18,19
 51 442 51 442 86.5 486 c 128,-1,20
 122 530 122 530 186 537 c 1,21,-1
 186 627 l 1,22,-1
 241 627 l 1,23,-1
 241 536 l 1,24,25
 301 528 301 528 334.5 486 c 128,-1,26
 368 444 368 444 368 369 c 2,27,-1
 368 354 l 1,28,-1
 298 354 l 1,0,-1
138 93 m 128,-1,30
 155 63 155 63 186 56 c 1,31,-1
 186 473 l 1,32,33
 154 466 154 466 137.5 436.5 c 128,-1,34
 121 407 121 407 121 349 c 2,35,-1
 121 180 l 2,36,29
 121 123 121 123 138 93 c 128,-1,30
EndSplineSet
EndChar

StartChar: sterling
Encoding: 163 163 101
Width: 392
GlyphClass: 2
Flags: W
LayerCount: 2
Fore
SplineSet
366 68 m 1,0,-1
 366 0 l 1,1,-1
 44 0 l 1,2,-1
 44 70 l 1,3,4
 70 82 70 82 79.5 105.5 c 128,-1,5
 89 129 89 129 89 168 c 2,6,-1
 89 310 l 1,7,-1
 27 310 l 1,8,-1
 27 377 l 1,9,-1
 89 377 l 1,10,-1
 89 556 l 2,11,12
 89 632 89 632 123.5 674.5 c 128,-1,13
 158 717 158 717 224 717 c 0,14,15
 290 717 290 717 323.5 675.5 c 128,-1,16
 357 634 357 634 357 558 c 1,17,-1
 286 558 l 1,18,19
 286 607 286 607 271 628.5 c 128,-1,20
 256 650 256 650 226 650 c 0,21,22
 165 650 165 650 165 572 c 2,23,-1
 165 377 l 1,24,-1
 285 377 l 1,25,-1
 285 310 l 1,26,-1
 165 310 l 1,27,-1
 165 167 l 2,28,29
 165 133 165 133 155.5 109 c 128,-1,30
 146 85 146 85 126 68 c 1,31,-1
 366 68 l 1,0,-1
EndSplineSet
EndChar

StartChar: currency
Encoding: 164 164 102
Width: 598
GlyphClass: 2
Flags: W
LayerCount: 2
Fore
SplineSet
417 166 m 1,0,1
 363 130 363 130 299 130 c 0,2,3
 234 130 234 130 181 166 c 1,4,-1
 112 97 l 1,5,-1
 60 150 l 1,6,-1
 130 218 l 1,7,8
 95 268 95 268 95 335 c 0,9,10
 95 403 95 403 131 451 c 1,11,-1
 61 521 l 1,12,-1
 113 572 l 1,13,-1
 181 503 l 1,14,15
 233 539 233 539 299 539 c 0,16,17
 364 539 364 539 416 503 c 1,18,-1
 485 572 l 1,19,-1
 537 521 l 1,20,-1
 467 452 l 1,21,22
 503 400 503 400 503 335 c 0,23,24
 503 268 503 268 468 218 c 1,25,-1
 538 148 l 1,26,-1
 486 96 l 1,27,-1
 417 166 l 1,0,1
392.5 239.5 m 128,-1,29
 430 278 430 278 430 335 c 256,30,31
 430 392 430 392 392.5 430 c 128,-1,32
 355 468 355 468 299 468 c 0,33,34
 242 468 242 468 205 430 c 128,-1,35
 168 392 168 392 168 335 c 0,36,37
 168 277 168 277 205 239 c 128,-1,38
 242 201 242 201 299 201 c 0,39,28
 355 201 355 201 392.5 239.5 c 128,-1,29
EndSplineSet
EndChar

StartChar: yen
Encoding: 165 165 103
Width: 398
GlyphClass: 2
Flags: W
LayerCount: 2
Fore
SplineSet
162 151 m 1,0,-1
 38 151 l 1,1,-1
 38 211 l 1,2,-1
 162 211 l 1,3,-1
 162 280 l 1,4,-1
 38 280 l 1,5,-1
 38 341 l 1,6,-1
 146 341 l 1,7,-1
 8 707 l 1,8,-1
 93 707 l 1,9,-1
 201 384 l 1,10,-1
 307 707 l 1,11,-1
 390 707 l 1,12,-1
 252 341 l 1,13,-1
 360 341 l 1,14,-1
 360 280 l 1,15,-1
 237 280 l 1,16,-1
 237 211 l 1,17,-1
 360 211 l 1,18,-1
 360 151 l 1,19,-1
 237 151 l 1,20,-1
 237 0 l 1,21,-1
 162 0 l 1,22,-1
 162 151 l 1,0,-1
EndSplineSet
EndChar

StartChar: brokenbar
Encoding: 166 166 104
Width: 272
GlyphClass: 2
Flags: W
LayerCount: 2
Fore
SplineSet
102 758 m 1,0,-1
 170 758 l 1,1,-1
 170 397 l 1,2,-1
 102 397 l 1,3,-1
 102 758 l 1,0,-1
102 278 m 1,4,-1
 170 278 l 1,5,-1
 170 -85 l 1,6,-1
 102 -85 l 1,7,-1
 102 278 l 1,4,-1
EndSplineSet
EndChar

StartChar: section
Encoding: 167 167 105
Width: 438
GlyphClass: 2
Flags: W
LayerCount: 2
Fore
SplineSet
107.5 -131 m 128,-1,1
 75 -90 75 -90 75 -6 c 1,2,-1
 145 -6 l 1,3,4
 145 -59 145 -59 161 -82.5 c 128,-1,5
 177 -106 177 -106 218 -106 c 0,6,7
 256 -106 256 -106 273 -84 c 128,-1,8
 290 -62 290 -62 290 -20 c 0,9,10
 290 16 290 16 280.5 36.5 c 128,-1,11
 271 57 271 57 248 71 c 128,-1,12
 225 85 225 85 181 97 c 0,13,14
 115 115 115 115 88 160 c 128,-1,15
 61 205 61 205 61 282 c 0,16,17
 61 412 61 412 152 443 c 1,18,19
 112 459 112 459 95.5 493.5 c 128,-1,20
 79 528 79 528 79 581 c 0,21,22
 79 653 79 653 115 692.5 c 128,-1,23
 151 732 151 732 221 732 c 0,24,25
 296 732 296 732 328 689.5 c 128,-1,26
 360 647 360 647 360 567 c 1,27,-1
 290 567 l 1,28,29
 290 617 290 617 275.5 641.5 c 128,-1,30
 261 666 261 666 222 666 c 0,31,32
 184 666 184 666 169 644.5 c 128,-1,33
 154 623 154 623 154 581 c 0,34,35
 154 532 154 532 176.5 508.5 c 128,-1,36
 199 485 199 485 259 468 c 0,37,38
 325 451 325 451 351 406 c 128,-1,39
 377 361 377 361 377 282 c 0,40,41
 377 153 377 153 289 123 c 1,42,43
 331 106 331 106 348 70.5 c 128,-1,44
 365 35 365 35 365 -18 c 0,45,46
 365 -92 365 -92 327.5 -132 c 128,-1,47
 290 -172 290 -172 217 -172 c 0,48,0
 140 -172 140 -172 107.5 -131 c 128,-1,1
283.5 193 m 128,-1,50
 303 223 303 223 303 282 c 0,51,52
 303 342 303 342 284 372 c 128,-1,53
 265 402 265 402 220 402 c 0,54,55
 174 402 174 402 154.5 371.5 c 128,-1,56
 135 341 135 341 135 282 c 0,57,58
 135 224 135 224 154.5 193.5 c 128,-1,59
 174 163 174 163 220 163 c 0,60,49
 264 163 264 163 283.5 193 c 128,-1,50
93 707 m 1024,61,-1
EndSplineSet
EndChar

StartChar: dieresis
Encoding: 168 168 106
Width: 513
GlyphClass: 2
Flags: W
LayerCount: 2
Fore
SplineSet
140 681 m 1,0,-1
 217 681 l 1,1,-1
 217 593 l 1,2,-1
 140 593 l 1,3,-1
 140 681 l 1,0,-1
296 681 m 1,4,-1
 373 681 l 1,5,-1
 373 593 l 1,6,-1
 296 593 l 1,7,-1
 296 681 l 1,4,-1
EndSplineSet
EndChar

StartChar: copyright
Encoding: 169 169 107
Width: 763
GlyphClass: 2
Flags: W
LayerCount: 2
Fore
SplineSet
205.5 34 m 128,-1,1
 131 78 131 78 92 159 c 128,-1,2
 53 240 53 240 53 348 c 0,3,4
 53 458 53 458 92.5 539 c 128,-1,5
 132 620 132 620 206.5 663.5 c 128,-1,6
 281 707 281 707 382 707 c 0,7,8
 485 707 485 707 559 662.5 c 128,-1,9
 633 618 633 618 672 537.5 c 128,-1,10
 711 457 711 457 711 348 c 0,11,12
 711 238 711 238 672 157.5 c 128,-1,13
 633 77 633 77 558.5 33.5 c 128,-1,14
 484 -10 484 -10 382 -10 c 256,15,0
 280 -10 280 -10 205.5 34 c 128,-1,1
584.5 121.5 m 128,-1,17
 655 203 655 203 655 348 c 0,18,19
 655 494 655 494 584.5 575 c 128,-1,20
 514 656 514 656 382 656 c 256,21,22
 250 656 250 656 180 575 c 128,-1,23
 110 494 110 494 110 348 c 0,24,25
 110 202 110 202 180.5 121 c 128,-1,26
 251 40 251 40 382 40 c 0,27,16
 514 40 514 40 584.5 121.5 c 128,-1,17
264 284 m 2,29,-1
 264 417 l 2,30,31
 264 551 264 551 384 551 c 0,32,33
 440 551 440 551 471 519.5 c 128,-1,34
 502 488 502 488 502 425 c 2,35,-1
 502 414 l 1,36,-1
 447 414 l 1,37,-1
 447 424 l 2,38,39
 447 503 447 503 385 503 c 0,40,41
 352 503 352 503 335 482 c 128,-1,42
 318 461 318 461 318 411 c 2,43,-1
 318 290 l 2,44,45
 318 240 318 240 335 218.5 c 128,-1,46
 352 197 352 197 385 197 c 0,47,48
 447 197 447 197 447 275 c 2,49,-1
 447 287 l 1,50,-1
 502 287 l 1,51,-1
 502 275 l 2,52,53
 502 212 502 212 470.5 180 c 128,-1,54
 439 148 439 148 384 148 c 0,55,28
 264 149 264 149 264 284 c 2,29,-1
EndSplineSet
EndChar

StartChar: ordfeminine
Encoding: 170 170 108
Width: 301
GlyphClass: 2
Flags: W
LayerCount: 2
Fore
SplineSet
225.5 738.5 m 128,-1,1
 253 711 253 711 253 662 c 2,2,-1
 253 440 l 1,3,-1
 189 440 l 1,4,-1
 189 469 l 1,5,6
 176 452 176 452 161.5 443.5 c 128,-1,7
 147 435 147 435 125 435 c 0,8,9
 82 435 82 435 59.5 461 c 128,-1,10
 37 487 37 487 37 535 c 0,11,12
 37 579 37 579 65 603.5 c 128,-1,13
 93 628 93 628 143 628 c 2,14,-1
 186 628 l 1,15,-1
 186 667 l 2,16,17
 186 709 186 709 146 709 c 0,18,19
 128 709 128 709 118 699 c 128,-1,20
 108 689 108 689 108 672 c 2,21,-1
 108 667 l 1,22,-1
 46 667 l 1,23,-1
 46 670 l 2,24,25
 46 716 46 716 73.5 741 c 128,-1,26
 101 766 101 766 147 766 c 0,27,0
 198 766 198 766 225.5 738.5 c 128,-1,1
174.5 506.5 m 128,-1,29
 186 519 186 519 186 542 c 2,30,-1
 186 581 l 1,31,-1
 153 581 l 2,32,33
 128 581 128 581 115.5 570.5 c 128,-1,34
 103 560 103 560 103 537 c 0,35,36
 103 494 103 494 142 494 c 0,37,28
 163 494 163 494 174.5 506.5 c 128,-1,29
140 867 m 1024,38,-1
EndSplineSet
EndChar

StartChar: guillemotleft
Encoding: 171 171 109
Width: 432
GlyphClass: 2
Flags: W
LayerCount: 2
Fore
SplineSet
20 270 m 1,0,-1
 204 458 l 1,1,-1
 204 380 l 1,2,-1
 97 270 l 1,3,-1
 204 161 l 1,4,-1
 204 83 l 1,5,-1
 20 270 l 1,0,-1
189 270 m 1,6,-1
 372 458 l 1,7,-1
 372 380 l 1,8,-1
 266 270 l 1,9,-1
 372 161 l 1,10,-1
 372 83 l 1,11,-1
 189 270 l 1,6,-1
EndSplineSet
EndChar

StartChar: logicalnot
Encoding: 172 172 110
Width: 430
GlyphClass: 2
Flags: W
LayerCount: 2
Fore
SplineSet
318 270 m 1,0,-1
 43 270 l 1,1,-1
 43 333 l 1,2,-1
 388 333 l 1,3,-1
 388 159 l 1,4,-1
 318 159 l 1,5,-1
 318 270 l 1,0,-1
EndSplineSet
EndChar

StartChar: registered
Encoding: 174 174 112
Width: 483
GlyphClass: 2
Flags: W
LayerCount: 2
Fore
SplineSet
110 367.5 m 128,-1,1
 61 421 61 421 61 511 c 0,2,3
 61 600 61 600 110.5 653 c 128,-1,4
 160 706 160 706 242 706 c 0,5,6
 326 706 326 706 374 653 c 128,-1,7
 422 600 422 600 422 511 c 0,8,9
 422 421 422 421 373.5 367.5 c 128,-1,10
 325 314 325 314 242 314 c 256,11,0
 159 314 159 314 110 367.5 c 128,-1,1
348 391 m 128,-1,13
 386 435 386 435 386 511 c 256,14,15
 386 587 386 587 347.5 630 c 128,-1,16
 309 673 309 673 242 673 c 0,17,18
 173 673 173 673 135 629.5 c 128,-1,19
 97 586 97 586 97 511 c 0,20,21
 97 433 97 433 135 390 c 128,-1,22
 173 347 173 347 242 347 c 256,23,12
 310 347 310 347 348 391 c 128,-1,13
183 621 m 1,24,-1
 247 621 l 2,25,26
 310 621 310 621 310 557 c 0,27,28
 310 517 310 517 281 501 c 1,29,-1
 316 403 l 1,30,-1
 276 403 l 1,31,-1
 245 493 l 1,32,-1
 220 493 l 1,33,-1
 220 403 l 1,34,-1
 183 403 l 1,35,-1
 183 621 l 1,24,-1
244 526 m 2,36,37
 260 526 260 526 266.5 533.5 c 128,-1,38
 273 541 273 541 273 558 c 0,39,40
 273 574 273 574 266.5 581 c 128,-1,41
 260 588 260 588 244 588 c 2,42,-1
 220 588 l 1,43,-1
 220 526 l 1,44,-1
 244 526 l 2,36,37
EndSplineSet
EndChar

StartChar: macron
Encoding: 175 175 113
Width: 513
GlyphClass: 2
Flags: W
LayerCount: 2
Fore
SplineSet
138 668 m 1,0,-1
 375 668 l 1,1,-1
 375 605 l 1,2,-1
 138 605 l 1,3,-1
 138 668 l 1,0,-1
EndSplineSet
EndChar

StartChar: degree
Encoding: 176 176 114
Width: 360
GlyphClass: 2
Flags: W
LayerCount: 2
Fore
SplineSet
89.5 500 m 128,-1,1
 53 536 53 536 53 590 c 256,2,3
 53 644 53 644 89.5 680.5 c 128,-1,4
 126 717 126 717 180 717 c 256,5,6
 234 717 234 717 270.5 680.5 c 128,-1,7
 307 644 307 644 307 590 c 256,8,9
 307 536 307 536 270.5 500 c 128,-1,10
 234 464 234 464 180 464 c 256,11,0
 126 464 126 464 89.5 500 c 128,-1,1
232.5 536 m 128,-1,13
 253 557 253 557 253 590 c 256,14,15
 253 623 253 623 232.5 644.5 c 128,-1,16
 212 666 212 666 180 666 c 256,17,18
 148 666 148 666 128 644.5 c 128,-1,19
 108 623 108 623 108 590 c 256,20,21
 108 557 108 557 128 536 c 128,-1,22
 148 515 148 515 180 515 c 256,23,12
 212 515 212 515 232.5 536 c 128,-1,13
EndSplineSet
EndChar

StartChar: plusminus
Encoding: 177 177 115
Width: 430
GlyphClass: 2
Flags: W
LayerCount: 2
Fore
SplineSet
390 357 m 1,0,-1
 390 290 l 1,1,-1
 249 290 l 1,2,-1
 249 150 l 1,3,-1
 182 150 l 1,4,-1
 182 290 l 1,5,-1
 41 290 l 1,6,-1
 41 357 l 1,7,-1
 182 357 l 1,8,-1
 182 498 l 1,9,-1
 249 498 l 1,10,-1
 249 357 l 1,11,-1
 390 357 l 1,0,-1
41 92 m 1,12,-1
 390 92 l 1,13,-1
 390 25 l 1,14,-1
 41 25 l 1,15,-1
 41 92 l 1,12,-1
EndSplineSet
EndChar

StartChar: acute
Encoding: 180 180 118
Width: 513
GlyphClass: 2
Flags: W
LayerCount: 2
Fore
SplineSet
273 722 m 1,0,-1
 349 722 l 1,1,-1
 238 590 l 1,2,-1
 180 590 l 1,3,-1
 273 722 l 1,0,-1
EndSplineSet
EndChar

StartChar: uni00B5
Encoding: 181 181 119
Width: 422
GlyphClass: 2
Flags: W
LayerCount: 2
Fore
SplineSet
60 529 m 1,0,-1
 129 529 l 1,1,-1
 129 147 l 2,2,3
 129 101 129 101 151.5 77 c 128,-1,4
 174 53 174 53 211 53 c 0,5,6
 247 53 247 53 270 78 c 128,-1,7
 293 103 293 103 293 147 c 2,8,-1
 293 529 l 1,9,-1
 362 529 l 1,10,-1
 362 0 l 1,11,-1
 296 0 l 1,12,-1
 296 48 l 1,13,14
 281 20 281 20 255 6 c 128,-1,15
 229 -8 229 -8 199 -8 c 0,16,17
 156 -8 156 -8 130 18 c 1,18,-1
 130 -158 l 1,19,-1
 60 -158 l 1,20,-1
 60 529 l 1,0,-1
EndSplineSet
EndChar

StartChar: paragraph
Encoding: 182 182 120
Width: 532
GlyphClass: 2
Flags: W
LayerCount: 2
Fore
SplineSet
231 275 m 1,0,1
 154 282 154 282 107.5 342.5 c 128,-1,2
 61 403 61 403 61 492 c 0,3,4
 61 551 61 551 86 600 c 128,-1,5
 111 649 111 649 157 678 c 128,-1,6
 203 707 203 707 264 707 c 2,7,-1
 440 707 l 1,8,-1
 440 -156 l 1,9,-1
 373 -156 l 1,10,-1
 373 640 l 1,11,-1
 299 640 l 1,12,-1
 299 -156 l 1,13,-1
 231 -156 l 1,14,-1
 231 275 l 1,0,1
EndSplineSet
EndChar

StartChar: cedilla
Encoding: 184 184 122
Width: 513
GlyphClass: 2
Flags: W
LayerCount: 2
Fore
SplineSet
259 12 m 1,0,-1
 326 12 l 1,1,-1
 266 -156 l 1,2,-1
 188 -156 l 1,3,-1
 259 12 l 1,0,-1
EndSplineSet
EndChar

StartChar: ordmasculine
Encoding: 186 186 124
Width: 302
GlyphClass: 2
Flags: W
LayerCount: 2
Fore
SplineSet
42 558 m 2,1,-1
 42 644 l 2,2,3
 42 709 42 709 70 737.5 c 128,-1,4
 98 766 98 766 152 766 c 256,5,6
 205 766 205 766 232.5 737.5 c 128,-1,7
 260 709 260 709 260 644 c 2,8,-1
 260 558 l 2,9,10
 260 493 260 493 232.5 464 c 128,-1,11
 205 435 205 435 152 435 c 0,12,0
 42 435 42 435 42 558 c 2,1,-1
194 557 m 2,14,-1
 194 645 l 2,15,16
 194 706 194 706 152 707 c 0,17,18
 109 707 109 707 109 645 c 2,19,-1
 109 557 l 2,20,21
 109 496 109 496 152 496 c 0,22,13
 194 496 194 496 194 557 c 2,14,-1
144 867 m 1024,23,-1
EndSplineSet
EndChar

StartChar: guillemotright
Encoding: 187 187 125
Width: 432
GlyphClass: 2
Flags: W
LayerCount: 2
Fore
SplineSet
60 161 m 1,0,-1
 167 270 l 1,1,-1
 60 380 l 1,2,-1
 60 458 l 1,3,-1
 244 270 l 1,4,-1
 60 83 l 1,5,-1
 60 161 l 1,0,-1
229 161 m 1,6,-1
 336 270 l 1,7,-1
 229 380 l 1,8,-1
 229 458 l 1,9,-1
 412 270 l 1,10,-1
 229 83 l 1,11,-1
 229 161 l 1,6,-1
EndSplineSet
EndChar

StartChar: onequarter
Encoding: 188 188 126
Width: 650
GlyphClass: 3
Flags: W
LayerCount: 2
Fore
SplineSet
85 279 m 1,0,-1
 85 627 l 1,1,-1
 22 575 l 1,2,-1
 22 656 l 1,3,-1
 85 707 l 1,4,-1
 158 707 l 1,5,-1
 158 279 l 1,6,-1
 85 279 l 1,0,-1
457 707 m 1,7,-1
 203 0 l 1,8,-1
 138 0 l 1,9,-1
 392 707 l 1,10,-1
 457 707 l 1,7,-1
625 76 m 1,11,-1
 593 76 l 1,12,-1
 593 0 l 1,13,-1
 521 0 l 1,14,-1
 521 76 l 1,15,-1
 384 76 l 1,16,-1
 384 139 l 1,17,-1
 478 428 l 1,18,-1
 550 428 l 1,19,-1
 456 139 l 1,20,-1
 521 139 l 1,21,-1
 521 238 l 1,22,-1
 593 238 l 1,23,-1
 593 139 l 1,24,-1
 625 139 l 1,25,-1
 625 76 l 1,11,-1
EndSplineSet
Ligature2: "'frac' Diagonal Fractions lookup 2 subtable" one slash four
EndChar

StartChar: onehalf
Encoding: 189 189 127
Width: 659
GlyphClass: 3
Flags: W
LayerCount: 2
Fore
SplineSet
85 627 m 1,0,-1
 22 575 l 1,1,-1
 22 656 l 1,2,-1
 85 707 l 1,3,-1
 158 707 l 1,4,-1
 158 279 l 1,5,-1
 85 279 l 1,6,-1
 85 627 l 1,0,-1
392 707 m 1,7,-1
 457 707 l 1,8,-1
 203 0 l 1,9,-1
 138 0 l 1,10,-1
 392 707 l 1,7,-1
415 61 m 1,11,-1
 532 244 l 2,12,13
 544 263 544 263 549.5 277.5 c 128,-1,14
 555 292 555 292 555 310 c 2,15,-1
 555 331 l 2,16,17
 555 350 555 350 546.5 361.5 c 128,-1,18
 538 373 538 373 520 373 c 0,19,20
 485 373 485 373 485 326 c 2,21,-1
 485 303 l 1,22,-1
 417 303 l 1,23,-1
 417 334 l 2,24,25
 417 380 417 380 445.5 407.5 c 128,-1,26
 474 435 474 435 522 435 c 0,27,28
 569 435 569 435 597.5 407 c 128,-1,29
 626 379 626 379 626 333 c 2,30,-1
 626 308 l 2,31,32
 626 281 626 281 617.5 260 c 128,-1,33
 609 239 609 239 592 212 c 2,34,-1
 497 63 l 1,35,-1
 626 63 l 1,36,-1
 626 0 l 1,37,-1
 415 0 l 1,38,-1
 415 61 l 1,11,-1
EndSplineSet
Ligature2: "'frac' Diagonal Fractions lookup 2 subtable" one slash two
EndChar

StartChar: threequarters
Encoding: 190 190 128
Width: 677
GlyphClass: 3
Flags: W
LayerCount: 2
Fore
SplineSet
212.5 301 m 128,-1,1
 183 272 183 272 135 272 c 0,2,3
 85 272 85 272 58 299.5 c 128,-1,4
 31 327 31 327 31 374 c 2,5,-1
 31 399 l 1,6,-1
 98 399 l 1,7,-1
 98 376 l 2,8,9
 98 357 98 357 107.5 346 c 128,-1,10
 117 335 117 335 134 335 c 0,11,12
 171 335 171 335 171 382 c 2,13,-1
 171 419 l 2,14,15
 171 445 171 445 161.5 456.5 c 128,-1,16
 152 468 152 468 130 468 c 2,17,-1
 112 468 l 1,18,-1
 112 530 l 1,19,-1
 130 530 l 2,20,21
 169 530 169 530 169 575 c 2,22,-1
 169 606 l 2,23,24
 169 651 169 651 134 651 c 0,25,26
 117 651 117 651 108 640.5 c 128,-1,27
 99 630 99 630 99 610 c 2,28,-1
 99 587 l 1,29,-1
 31 587 l 1,30,-1
 31 613 l 2,31,32
 31 659 31 659 59 686.5 c 128,-1,33
 87 714 87 714 135 714 c 0,34,35
 184 714 184 714 212 686 c 128,-1,36
 240 658 240 658 240 609 c 2,37,-1
 240 585 l 2,38,39
 240 554 240 554 229 534 c 128,-1,40
 218 514 218 514 195 503 c 1,41,42
 222 492 222 492 232 471 c 128,-1,43
 242 450 242 450 242 415 c 2,44,-1
 242 379 l 2,45,0
 242 330 242 330 212.5 301 c 128,-1,1
509 707 m 1,46,-1
 255 0 l 1,47,-1
 190 0 l 1,48,-1
 444 707 l 1,49,-1
 509 707 l 1,46,-1
652 76 m 1,50,-1
 621 76 l 1,51,-1
 621 0 l 1,52,-1
 549 0 l 1,53,-1
 549 76 l 1,54,-1
 412 76 l 1,55,-1
 412 139 l 1,56,-1
 506 428 l 1,57,-1
 578 428 l 1,58,-1
 483 139 l 1,59,-1
 549 139 l 1,60,-1
 549 238 l 1,61,-1
 621 238 l 1,62,-1
 621 139 l 1,63,-1
 652 139 l 1,64,-1
 652 76 l 1,50,-1
EndSplineSet
Ligature2: "'frac' Diagonal Fractions lookup 2 subtable" three slash four
EndChar

StartChar: questiondown
Encoding: 191 191 129
Width: 371
GlyphClass: 2
Flags: W
LayerCount: 2
Fore
SplineSet
148 529 m 1,0,-1
 228 529 l 1,1,-1
 228 430 l 1,2,-1
 148 430 l 1,3,-1
 148 529 l 1,0,-1
77 -123.5 m 128,-1,5
 38 -79 38 -79 38 -1 c 0,6,7
 38 38 38 38 48.5 68.5 c 128,-1,8
 59 99 59 99 89 150 c 2,9,-1
 124 208 l 2,10,11
 141 238 141 238 146.5 256 c 128,-1,12
 152 274 152 274 152 304 c 2,13,-1
 152 340 l 1,14,-1
 226 340 l 1,15,-1
 226 300 l 2,16,17
 226 264 226 264 219.5 241 c 128,-1,18
 213 218 213 218 188 178 c 2,19,-1
 147 111 l 2,20,21
 128 79 128 79 120.5 55.5 c 128,-1,22
 113 32 113 32 113 -1 c 0,23,24
 113 -101 113 -101 188 -101 c 0,25,26
 232 -101 232 -101 249 -71.5 c 128,-1,27
 266 -42 266 -42 266 25 c 1,28,-1
 341 25 l 1,29,30
 339 -168 339 -168 189 -168 c 0,31,4
 116 -168 116 -168 77 -123.5 c 128,-1,5
EndSplineSet
EndChar

StartChar: Aring
Encoding: 197 197 135
Width: 472
GlyphClass: 2
Flags: W
LayerCount: 2
Fore
SplineSet
339 180 m 1,0,-1
 132 180 l 1,1,-1
 87 0 l 1,2,-1
 9 0 l 1,3,-1
 202 707 l 1,4,5
 176 717 176 717 160.5 739.5 c 128,-1,6
 145 762 145 762 145 792 c 0,7,8
 145 831 145 831 171 857 c 128,-1,9
 197 883 197 883 236 883 c 0,10,11
 276 883 276 883 302 856.5 c 128,-1,12
 328 830 328 830 328 792 c 0,13,14
 328 762 328 762 312.5 739.5 c 128,-1,15
 297 717 297 717 270 707 c 1,16,-1
 463 0 l 1,17,-1
 384 0 l 1,18,-1
 339 180 l 1,0,-1
200 754.5 m 128,-1,20
 214 740 214 740 236 740 c 0,21,22
 259 740 259 740 272.5 754.5 c 128,-1,23
 286 769 286 769 286 792 c 256,24,25
 286 815 286 815 272 829.5 c 128,-1,26
 258 844 258 844 236 844 c 0,27,28
 214 844 214 844 200 829 c 128,-1,29
 186 814 186 814 186 792 c 256,30,19
 186 769 186 769 200 754.5 c 128,-1,20
323 245 m 1,31,-1
 236 594 l 1,32,-1
 148 245 l 1,33,-1
 323 245 l 1,31,-1
EndSplineSet
EndChar

StartChar: AE
Encoding: 198 198 136
Width: 704
GlyphClass: 2
Flags: W
LayerCount: 2
Fore
SplineSet
436 640 m 1,0,-1
 436 393 l 1,1,-1
 634 393 l 1,2,-1
 634 326 l 1,3,-1
 436 326 l 1,4,-1
 436 67 l 1,5,-1
 668 67 l 1,6,-1
 668 0 l 1,7,-1
 362 0 l 1,8,-1
 362 176 l 1,9,-1
 163 176 l 1,10,-1
 87 0 l 1,11,-1
 9 0 l 1,12,-1
 317 707 l 1,13,-1
 668 707 l 1,14,-1
 668 640 l 1,15,-1
 436 640 l 1,0,-1
362 242 m 1,16,-1
 362 642 l 1,17,-1
 190 242 l 1,18,-1
 362 242 l 1,16,-1
EndSplineSet
EndChar

StartChar: Ccedilla
Encoding: 199 199 137
Width: 489
GlyphClass: 2
Flags: W
LayerCount: 2
Fore
SplineSet
361 501 m 1,0,-1
 361 508 l 2,1,2
 361 581 361 581 330 614.5 c 128,-1,3
 299 648 299 648 247 648 c 0,4,5
 188 648 188 648 158 610.5 c 128,-1,6
 128 573 128 573 128 494 c 2,7,-1
 128 205 l 2,8,9
 128 60 128 60 247 59 c 0,10,11
 300 59 300 59 330.5 93 c 128,-1,12
 361 127 361 127 361 197 c 2,13,-1
 361 206 l 1,14,-1
 434 206 l 1,15,-1
 434 196 l 2,16,17
 434 110 434 110 396.5 60 c 128,-1,18
 359 10 359 10 296 -3 c 1,19,-1
 242 -156 l 1,20,-1
 164 -156 l 1,21,-1
 226 -7 l 1,22,23
 147 -1 147 -1 100 52 c 128,-1,24
 53 105 53 105 53 206 c 2,25,-1
 53 501 l 2,26,27
 53 609 53 609 106 662.5 c 128,-1,28
 159 716 159 716 246 716 c 0,29,30
 330 716 330 716 383 664.5 c 128,-1,31
 436 613 436 613 436 510 c 2,32,-1
 436 501 l 1,33,-1
 361 501 l 1,0,-1
EndSplineSet
EndChar

StartChar: Eth
Encoding: 208 208 146
Width: 517
GlyphClass: 2
Flags: W
LayerCount: 2
Fore
SplineSet
411.5 653.5 m 128,-1,1
 464 600 464 600 464 493 c 2,2,-1
 464 214 l 2,3,4
 464 108 464 108 411.5 54 c 128,-1,5
 359 0 359 0 273 0 c 2,6,-1
 90 0 l 1,7,-1
 90 326 l 1,8,-1
 31 326 l 1,9,-1
 31 392 l 1,10,-1
 90 392 l 1,11,-1
 90 707 l 1,12,-1
 273 707 l 2,13,0
 359 707 359 707 411.5 653.5 c 128,-1,1
389 485 m 2,14,15
 389 563 389 563 359.5 601.5 c 128,-1,16
 330 640 330 640 273 640 c 2,17,-1
 165 640 l 1,18,-1
 165 392 l 1,19,-1
 274 392 l 1,20,-1
 274 326 l 1,21,-1
 165 326 l 1,22,-1
 165 67 l 1,23,-1
 273 67 l 2,24,25
 328 67 328 67 358.5 103.5 c 128,-1,26
 389 140 389 140 389 213 c 2,27,-1
 389 485 l 2,14,15
EndSplineSet
EndChar

StartChar: multiply
Encoding: 215 215 153
Width: 430
GlyphClass: 2
Flags: W
LayerCount: 2
Fore
SplineSet
65 176 m 1,0,-1
 171 283 l 1,1,-1
 65 389 l 1,2,-1
 110 433 l 1,3,-1
 216 328 l 1,4,-1
 322 433 l 1,5,-1
 366 389 l 1,6,-1
 260 283 l 1,7,-1
 366 176 l 1,8,-1
 322 132 l 1,9,-1
 216 239 l 1,10,-1
 110 132 l 1,11,-1
 65 176 l 1,0,-1
EndSplineSet
EndChar

StartChar: Oslash
Encoding: 216 216 154
Width: 489
GlyphClass: 2
Flags: W
LayerCount: 2
Fore
SplineSet
400 641 m 1,0,1
 436 588 436 588 436 501 c 2,2,-1
 436 206 l 2,3,4
 436 100 436 100 383.5 46 c 128,-1,5
 331 -8 331 -8 245 -8 c 0,6,7
 177 -8 177 -8 129 26 c 1,8,-1
 109 -20 l 1,9,-1
 54 -20 l 1,10,-1
 91 63 l 1,11,12
 53 117 53 117 53 206 c 2,13,-1
 53 501 l 2,14,15
 53 610 53 610 105.5 663 c 128,-1,16
 158 716 158 716 245 716 c 0,17,18
 317 716 317 716 364 681 c 1,19,-1
 384 727 l 1,20,-1
 438 727 l 1,21,-1
 400 641 l 1,0,1
132 156 m 1,23,-1
 332 609 l 1,24,25
 303 648 303 648 246 648 c 0,26,27
 187 648 187 648 157.5 610 c 128,-1,28
 128 572 128 572 128 494 c 2,29,-1
 128 205 l 2,30,22
 128 175 128 175 132 156 c 1,23,-1
357 544 m 1,32,-1
 159 94 l 1,33,34
 188 59 188 59 246 59 c 0,35,36
 301 59 301 59 331 95.5 c 128,-1,37
 361 132 361 132 361 205 c 2,38,-1
 361 494 l 2,39,31
 361 525 361 525 357 544 c 1,32,-1
EndSplineSet
EndChar

StartChar: Thorn
Encoding: 222 222 160
Width: 450
GlyphClass: 2
Flags: W
LayerCount: 2
Fore
SplineSet
379 526 m 128,-1,1
 423 474 423 474 423 372 c 0,2,3
 423 170 423 170 241 170 c 2,4,-1
 135 170 l 1,5,-1
 135 0 l 1,6,-1
 61 0 l 1,7,-1
 61 707 l 1,8,-1
 135 707 l 1,9,-1
 135 578 l 1,10,-1
 241 578 l 2,11,0
 335 578 335 578 379 526 c 128,-1,1
321 268 m 128,-1,13
 348 300 348 300 348 372 c 0,14,15
 348 445 348 445 321 478 c 128,-1,16
 294 511 294 511 237 511 c 2,17,-1
 135 511 l 1,18,-1
 135 236 l 1,19,-1
 237 236 l 2,20,12
 294 236 294 236 321 268 c 128,-1,13
EndSplineSet
EndChar

StartChar: germandbls
Encoding: 223 223 161
Width: 422
GlyphClass: 2
Flags: W
LayerCount: 2
Fore
SplineSet
215 59 m 1,0,-1
 234 59 l 2,1,2
 266 59 266 59 280 74.5 c 128,-1,3
 294 90 294 90 297.5 122.5 c 128,-1,4
 301 155 301 155 301 225 c 0,5,6
 301 287 301 287 297.5 318.5 c 128,-1,7
 294 350 294 350 279.5 367.5 c 128,-1,8
 265 385 265 385 233 385 c 2,9,-1
 212 385 l 1,10,-1
 212 447 l 1,11,-1
 233 447 l 2,12,13
 270 447 270 447 283 473 c 128,-1,14
 296 499 296 499 296 553 c 0,15,16
 296 605 296 605 275.5 628.5 c 128,-1,17
 255 652 255 652 215 652 c 0,18,19
 131 652 131 652 131 558 c 2,20,-1
 131 0 l 1,21,-1
 60 0 l 1,22,-1
 60 535 l 2,23,24
 60 624 60 624 96.5 670 c 128,-1,25
 133 716 133 716 216 716 c 0,26,27
 285 716 285 716 326 674 c 128,-1,28
 367 632 367 632 367 558 c 0,29,30
 367 500 367 500 353.5 471 c 128,-1,31
 340 442 340 442 305 423 c 1,32,33
 335 408 335 408 348.5 385 c 128,-1,34
 362 362 362 362 367 326.5 c 128,-1,35
 372 291 372 291 372 225 c 0,36,37
 372 136 372 136 363.5 89.5 c 128,-1,38
 355 43 355 43 327.5 19.5 c 128,-1,39
 300 -4 300 -4 243 -4 c 2,40,-1
 215 -4 l 1,41,-1
 215 59 l 1,0,-1
EndSplineSet
EndChar

StartChar: ae
Encoding: 230 230 168
Width: 648
GlyphClass: 2
Flags: W
LayerCount: 2
Fore
SplineSet
350 245 m 1,0,-1
 350 181 l 2,1,2
 350 111 350 111 374 81.5 c 128,-1,3
 398 52 398 52 442 52 c 0,4,5
 483 52 483 52 505 78 c 128,-1,6
 527 104 527 104 527 158 c 2,7,-1
 527 162 l 1,8,-1
 596 162 l 1,9,-1
 596 159 l 2,10,11
 596 76 596 76 555.5 34 c 128,-1,12
 515 -8 515 -8 442 -8 c 0,13,14
 354 -8 354 -8 312 51 c 1,15,16
 292 22 292 22 259.5 7 c 128,-1,17
 227 -8 227 -8 186 -8 c 0,18,19
 116 -8 116 -8 78.5 33 c 128,-1,20
 41 74 41 74 41 147 c 0,21,22
 41 218 41 218 81.5 258 c 128,-1,23
 122 298 122 298 199 298 c 2,24,-1
 281 298 l 1,25,-1
 281 387 l 2,26,27
 281 476 281 476 199 476 c 0,28,29
 161 476 161 476 140.5 455.5 c 128,-1,30
 120 435 120 435 120 398 c 2,31,-1
 120 390 l 1,32,-1
 54 390 l 1,33,-1
 54 399 l 2,34,35
 54 464 54 464 93.5 501 c 128,-1,36
 133 538 133 538 199 538 c 0,37,38
 282 538 282 538 319 487 c 1,39,40
 360 537 360 537 438 538 c 0,41,42
 512 538 512 538 554.5 490.5 c 128,-1,43
 597 443 597 443 597 351 c 2,44,-1
 597 245 l 1,45,-1
 350 245 l 1,0,-1
373 446.5 m 128,-1,47
 350 418 350 418 350 349 c 2,48,-1
 350 298 l 1,49,-1
 527 298 l 1,50,-1
 527 351 l 2,51,52
 527 418 527 418 504.5 446.5 c 128,-1,53
 482 475 482 475 439 475 c 256,54,46
 396 475 396 475 373 446.5 c 128,-1,47
281 246 m 1,55,-1
 206 246 l 2,56,57
 111 246 111 246 111 148 c 0,58,59
 111 52 111 52 193 52 c 0,60,61
 235 52 235 52 258 78.5 c 128,-1,62
 281 105 281 105 281 153 c 2,63,-1
 281 246 l 1,55,-1
EndSplineSet
EndChar

StartChar: ccedilla
Encoding: 231 231 169
Width: 418
GlyphClass: 2
Flags: W
LayerCount: 2
Fore
SplineSet
298 354 m 1,0,-1
 298 369 l 2,1,2
 298 475 298 475 212 475 c 0,3,4
 167 475 167 475 144 446.5 c 128,-1,5
 121 418 121 418 121 349 c 2,6,-1
 121 180 l 2,7,8
 121 111 121 111 144 82.5 c 128,-1,9
 167 54 167 54 211 54 c 0,10,11
 298 54 298 54 298 161 c 2,12,-1
 298 175 l 1,13,-1
 368 175 l 1,14,-1
 368 162 l 2,15,16
 368 94 368 94 341.5 53.5 c 128,-1,17
 315 13 315 13 266 -1 c 1,18,-1
 212 -156 l 1,19,-1
 134 -156 l 1,20,-1
 197 -8 l 1,21,22
 52 2 52 2 51 172 c 2,23,-1
 51 357 l 2,24,25
 51 450 51 450 93 494 c 128,-1,26
 135 538 135 538 211 538 c 0,27,28
 286 538 286 538 327 496 c 128,-1,29
 368 454 368 454 368 369 c 2,30,-1
 368 354 l 1,31,-1
 298 354 l 1,0,-1
EndSplineSet
EndChar

StartChar: eth
Encoding: 240 240 178
Width: 415
GlyphClass: 2
Flags: W
LayerCount: 2
Fore
SplineSet
350 406.5 m 128,-1,1
 365 356 365 356 365 287 c 2,2,-1
 365 184 l 2,3,4
 365 -10 365 -10 207 -9 c 0,5,6
 51 -9 51 -9 51 182 c 2,7,-1
 51 298 l 2,8,9
 51 483 51 483 190 483 c 0,10,11
 226 483 226 483 249 471 c 1,12,-1
 191 569 l 1,13,-1
 105 542 l 1,14,-1
 89 594 l 1,15,-1
 164 617 l 1,16,-1
 111 710 l 1,17,-1
 188 710 l 1,18,-1
 229 639 l 1,19,-1
 312 666 l 1,20,-1
 328 613 l 1,21,-1
 257 591 l 1,22,-1
 296 523 l 2,23,0
 335 457 335 457 350 406.5 c 128,-1,1
295 306 m 2,24,25
 295 421 295 421 208 421 c 256,26,27
 121 421 121 421 121 307 c 2,28,-1
 121 170 l 2,29,30
 121 54 121 54 208 54 c 256,31,32
 295 54 295 54 295 170 c 2,33,-1
 295 306 l 2,24,25
EndSplineSet
EndChar

StartChar: divide
Encoding: 247 247 185
Width: 430
GlyphClass: 2
Flags: W
LayerCount: 2
Fore
SplineSet
181.5 387 m 128,-1,1
 167 401 167 401 167 422 c 256,2,3
 167 442 167 442 181.5 456 c 128,-1,4
 196 470 196 470 216 470 c 256,5,6
 236 470 236 470 250 456 c 128,-1,7
 264 442 264 442 264 422 c 256,8,9
 264 402 264 402 250.5 387.5 c 128,-1,10
 237 373 237 373 216 373 c 256,11,0
 196 373 196 373 181.5 387 c 128,-1,1
41 316 m 1,12,-1
 390 316 l 1,13,-1
 390 249 l 1,14,-1
 41 249 l 1,15,-1
 41 316 l 1,12,-1
181.5 112.5 m 128,-1,17
 167 127 167 127 167 147 c 256,18,19
 167 167 167 167 181.5 181.5 c 128,-1,20
 196 196 196 196 216 196 c 256,21,22
 236 196 236 196 250 182 c 128,-1,23
 264 168 264 168 264 147 c 256,24,25
 264 127 264 127 250.5 112.5 c 128,-1,26
 237 98 237 98 216 98 c 256,27,16
 196 98 196 98 181.5 112.5 c 128,-1,17
EndSplineSet
EndChar

StartChar: oslash
Encoding: 248 248 186
Width: 418
GlyphClass: 2
Flags: W
LayerCount: 2
Fore
SplineSet
334 484 m 1,0,1
 368 439 368 439 368 357 c 2,2,-1
 368 172 l 2,3,4
 368 80 368 80 326.5 36 c 128,-1,5
 285 -8 285 -8 211 -8 c 0,6,7
 153 -8 153 -8 115 17 c 1,8,-1
 92 -31 l 1,9,-1
 51 -31 l 1,10,-1
 86 44 l 1,11,12
 51 88 51 88 51 172 c 2,13,-1
 51 357 l 2,14,15
 51 450 51 450 93 494 c 128,-1,16
 135 538 135 538 211 538 c 0,17,18
 269 538 269 538 305 512 c 1,19,-1
 327 557 l 1,20,-1
 368 557 l 1,21,-1
 334 484 l 1,0,1
126 128 m 1,23,-1
 274 446 l 1,24,25
 252 475 252 475 210 475 c 256,26,27
 167 475 167 475 144 446.5 c 128,-1,28
 121 418 121 418 121 349 c 2,29,-1
 121 180 l 2,30,22
 121 152 121 152 126 128 c 1,23,-1
294 399 m 1,32,-1
 144 82 l 1,33,34
 168 54 168 54 210 54 c 0,35,36
 253 54 253 54 275.5 83.5 c 128,-1,37
 298 113 298 113 298 180 c 2,38,-1
 298 349 l 2,39,31
 298 380 298 380 294 399 c 1,32,-1
EndSplineSet
EndChar

StartChar: thorn
Encoding: 254 254 192
Width: 421
GlyphClass: 2
Flags: W
LayerCount: 2
Fore
SplineSet
60 707 m 1,0,-1
 130 707 l 1,1,-1
 130 478 l 1,2,3
 165 537 165 537 230 538 c 0,4,5
 293 538 293 538 332 493.5 c 128,-1,6
 371 449 371 449 371 357 c 2,7,-1
 371 172 l 2,8,9
 371 81 371 81 332.5 36.5 c 128,-1,10
 294 -8 294 -8 231 -8 c 0,11,12
 164 -8 164 -8 130 48 c 1,13,-1
 130 -156 l 1,14,-1
 60 -156 l 1,15,-1
 60 707 l 1,0,-1
280 83.5 m 128,-1,17
 301 113 301 113 301 180 c 2,18,-1
 301 349 l 2,19,20
 301 475 301 475 218 475 c 0,21,22
 175 475 175 475 152.5 443 c 128,-1,23
 130 411 130 411 130 348 c 2,24,-1
 130 179 l 2,25,26
 130 118 130 118 152.5 86 c 128,-1,27
 175 54 175 54 218 54 c 0,28,16
 259 54 259 54 280 83.5 c 128,-1,17
EndSplineSet
EndChar

StartChar: dotlessi
Encoding: 305 305 194
Width: 202
GlyphClass: 2
Flags: W
LayerCount: 2
Fore
SplineSet
67 529 m 1,0,-1
 136 529 l 1,1,-1
 136 0 l 1,2,-1
 67 0 l 1,3,-1
 67 529 l 1,0,-1
EndSplineSet
EndChar

StartChar: OE
Encoding: 338 338 195
Width: 699
GlyphClass: 2
Flags: W
LayerCount: 2
Fore
SplineSet
435 640 m 1,0,-1
 435 461 l 2,1,2
 436 448 436 448 436 419 c 2,3,-1
 436 393 l 1,4,-1
 629 393 l 1,5,-1
 629 326 l 1,6,-1
 436 326 l 1,7,-1
 436 296 l 2,8,9
 436 267 436 267 435 253 c 2,10,-1
 435 67 l 1,11,-1
 663 67 l 1,12,-1
 663 0 l 1,13,-1
 369 0 l 1,14,-1
 369 43 l 1,15,16
 322 -8 322 -8 239 -8 c 0,17,18
 153 -8 153 -8 103 45 c 128,-1,19
 53 98 53 98 53 206 c 2,20,-1
 53 502 l 2,21,22
 53 611 53 611 103 664 c 128,-1,23
 153 717 153 717 239 717 c 0,24,25
 321 717 321 717 369 668 c 1,26,-1
 369 707 l 1,27,-1
 663 707 l 1,28,-1
 663 640 l 1,29,-1
 435 640 l 1,0,-1
361 495 m 2,30,31
 361 573 361 573 331.5 611 c 128,-1,32
 302 649 302 649 246 649 c 0,33,34
 187 649 187 649 157.5 611 c 128,-1,35
 128 573 128 573 128 495 c 2,36,-1
 128 205 l 2,37,38
 128 60 128 60 246 59 c 0,39,40
 301 59 301 59 331 95.5 c 128,-1,41
 361 132 361 132 361 205 c 2,42,-1
 361 495 l 2,30,31
EndSplineSet
EndChar

StartChar: oe
Encoding: 339 339 196
Width: 665
GlyphClass: 2
Flags: W
LayerCount: 2
Fore
SplineSet
368 245 m 1,0,-1
 368 181 l 2,1,2
 368 111 368 111 392 81.5 c 128,-1,3
 416 52 416 52 460 52 c 0,4,5
 501 52 501 52 523 78 c 128,-1,6
 545 104 545 104 545 158 c 2,7,-1
 545 162 l 1,8,-1
 613 162 l 1,9,-1
 613 159 l 2,10,11
 613 76 613 76 572 34 c 128,-1,12
 531 -8 531 -8 458 -8 c 0,13,14
 374 -8 374 -8 334 45 c 1,15,16
 294 -8 294 -8 211 -8 c 0,17,18
 135 -8 135 -8 93 35.5 c 128,-1,19
 51 79 51 79 51 172 c 2,20,-1
 51 357 l 2,21,22
 51 450 51 450 93 494 c 128,-1,23
 135 538 135 538 211 538 c 0,24,25
 296 538 296 538 334 483 c 1,26,27
 375 537 375 537 456 538 c 0,28,29
 530 538 530 538 572 490.5 c 128,-1,30
 614 443 614 443 614 351 c 2,31,-1
 614 245 l 1,32,-1
 368 245 l 1,0,-1
275.5 83.5 m 128,-1,34
 298 113 298 113 298 180 c 2,35,-1
 298 349 l 2,36,37
 298 417 298 417 275.5 446 c 128,-1,38
 253 475 253 475 210 475 c 256,39,40
 167 475 167 475 144 446.5 c 128,-1,41
 121 418 121 418 121 349 c 2,42,-1
 121 180 l 2,43,44
 121 111 121 111 144 82.5 c 128,-1,45
 167 54 167 54 210 54 c 256,46,33
 253 54 253 54 275.5 83.5 c 128,-1,34
391 446.5 m 128,-1,48
 368 418 368 418 368 349 c 2,49,-1
 368 298 l 1,50,-1
 545 298 l 1,51,-1
 545 351 l 2,52,53
 545 418 545 418 522.5 446.5 c 128,-1,54
 500 475 500 475 457 475 c 256,55,47
 414 475 414 475 391 446.5 c 128,-1,48
EndSplineSet
EndChar

StartChar: florin
Encoding: 402 402 202
Width: 392
GlyphClass: 2
Flags: W
LayerCount: 2
Fore
SplineSet
10 -89 m 1,0,-1
 31 -89 l 2,1,2
 60 -89 60 -89 75.5 -81.5 c 128,-1,3
 91 -74 91 -74 100.5 -54 c 128,-1,4
 110 -34 110 -34 116 5 c 2,5,-1
 165 356 l 1,6,-1
 90 356 l 1,7,-1
 90 422 l 1,8,-1
 174 422 l 1,9,-1
 191 549 l 2,10,11
 203 632 203 632 239.5 669.5 c 128,-1,12
 276 707 276 707 351 707 c 2,13,-1
 382 707 l 1,14,-1
 382 640 l 1,15,-1
 351 640 l 2,16,17
 322 640 322 640 306.5 632.5 c 128,-1,18
 291 625 291 625 281.5 605.5 c 128,-1,19
 272 586 272 586 266 548 c 2,20,-1
 249 422 l 1,21,-1
 337 422 l 1,22,-1
 337 356 l 1,23,-1
 240 356 l 1,24,-1
 189 3 l 2,25,26
 178 -81 178 -81 141 -118.5 c 128,-1,27
 104 -156 104 -156 30 -156 c 2,28,-1
 10 -156 l 1,29,-1
 10 -89 l 1,0,-1
EndSplineSet
EndChar

StartChar: circumflex
Encoding: 710 710 203
Width: 513
GlyphClass: 2
Flags: W
LayerCount: 2
Fore
SplineSet
222 728 m 1,0,-1
 288 728 l 1,1,-1
 390 582 l 1,2,-1
 322 582 l 1,3,-1
 257 674 l 1,4,-1
 191 582 l 1,5,-1
 123 582 l 1,6,-1
 222 728 l 1,0,-1
EndSplineSet
EndChar

StartChar: caron
Encoding: 711 711 204
Width: 532
GlyphClass: 2
Flags: W
LayerCount: 2
Fore
SplineSet
133 736 m 1,0,-1
 202 736 l 1,1,-1
 267 644 l 1,2,-1
 332 736 l 1,3,-1
 400 736 l 1,4,-1
 298 590 l 1,5,-1
 232 590 l 1,6,-1
 133 736 l 1,0,-1
EndSplineSet
EndChar

StartChar: dotaccent
Encoding: 729 729 205
Width: 513
GlyphClass: 2
Flags: W
LayerCount: 2
Fore
SplineSet
221 701 m 1,0,-1
 292 701 l 1,1,-1
 292 609 l 1,2,-1
 221 609 l 1,3,-1
 221 701 l 1,0,-1
EndSplineSet
EndChar

StartChar: ring
Encoding: 730 730 206
Width: 524
GlyphClass: 2
Flags: W
LayerCount: 2
Fore
SplineSet
196.5 595.5 m 128,-1,1
 171 622 171 622 171 660 c 256,2,3
 171 699 171 699 196.5 725.5 c 128,-1,4
 222 752 222 752 261 752 c 0,5,6
 301 752 301 752 327 725.5 c 128,-1,7
 353 699 353 699 353 660 c 256,8,9
 353 621 353 621 327 595 c 128,-1,10
 301 569 301 569 261 569 c 0,11,0
 222 569 222 569 196.5 595.5 c 128,-1,1
297.5 623.5 m 128,-1,13
 311 638 311 638 311 660 c 256,14,15
 311 683 311 683 297.5 698 c 128,-1,16
 284 713 284 713 261 713 c 0,17,18
 239 713 239 713 225.5 698 c 128,-1,19
 212 683 212 683 212 660 c 256,20,21
 212 637 212 637 226 623 c 128,-1,22
 240 609 240 609 261 609 c 0,23,12
 284 609 284 609 297.5 623.5 c 128,-1,13
EndSplineSet
EndChar

StartChar: tilde
Encoding: 732 732 207
Width: 513
GlyphClass: 2
Flags: W
LayerCount: 2
Fore
SplineSet
146 656 m 1,0,1
 164 675 164 675 177.5 683 c 128,-1,2
 191 691 191 691 210 691 c 0,3,4
 225 691 225 691 236 686.5 c 128,-1,5
 247 682 247 682 261 673 c 256,6,7
 275 664 275 664 286 659 c 128,-1,8
 297 654 297 654 310 654 c 0,9,10
 325 654 325 654 336 662 c 128,-1,11
 347 670 347 670 367 692 c 1,12,-1
 367 621 l 1,13,14
 351 602 351 602 337.5 594 c 128,-1,15
 324 586 324 586 304 586 c 0,16,17
 288 586 288 586 276 591 c 128,-1,18
 264 596 264 596 248 605 c 0,19,20
 234 613 234 613 225.5 617.5 c 128,-1,21
 217 622 217 622 207 622 c 0,22,23
 191 622 191 622 178 613.5 c 128,-1,24
 165 605 165 605 146 583 c 1,25,-1
 146 656 l 1,0,1
EndSplineSet
EndChar

StartChar: gravecomb
Encoding: 768 768 208
Width: 0
GlyphClass: 2
Flags: W
LayerCount: 2
Fore
SplineSet
-2 590 m 1,0,-1
 -114 722 l 1,1,-1
 -38 722 l 1,2,-1
 55 590 l 1,3,-1
 -2 590 l 1,0,-1
EndSplineSet
EndChar

StartChar: acutecomb
Encoding: 769 769 209
Width: 0
GlyphClass: 2
Flags: W
LayerCount: 2
Fore
SplineSet
28 722 m 1,0,-1
 103 722 l 1,1,-1
 -8 590 l 1,2,-1
 -66 590 l 1,3,-1
 28 722 l 1,0,-1
EndSplineSet
EndChar

StartChar: uni0302
Encoding: 770 770 210
Width: 0
GlyphClass: 2
Flags: W
LayerCount: 2
Fore
SplineSet
-34 728 m 1,0,-1
 32 728 l 1,1,-1
 134 582 l 1,2,-1
 66 582 l 1,3,-1
 1 674 l 1,4,-1
 -65 582 l 1,5,-1
 -133 582 l 1,6,-1
 -34 728 l 1,0,-1
EndSplineSet
EndChar

StartChar: tildecomb
Encoding: 771 771 211
Width: 0
GlyphClass: 2
Flags: W
LayerCount: 2
Fore
SplineSet
-111 656 m 1,0,1
 -93 675 -93 675 -79.5 683 c 128,-1,2
 -66 691 -66 691 -47 691 c 0,3,4
 -32 691 -32 691 -21 686.5 c 128,-1,5
 -10 682 -10 682 4 673 c 256,6,7
 18 664 18 664 29 659 c 128,-1,8
 40 654 40 654 53 654 c 0,9,10
 68 654 68 654 79 662 c 128,-1,11
 90 670 90 670 110 692 c 1,12,-1
 110 621 l 1,13,14
 94 602 94 602 80.5 594 c 128,-1,15
 67 586 67 586 47 586 c 0,16,17
 31 586 31 586 19 591 c 128,-1,18
 7 596 7 596 -9 605 c 0,19,20
 -23 613 -23 613 -31.5 617.5 c 128,-1,21
 -40 622 -40 622 -50 622 c 0,22,23
 -66 622 -66 622 -79 613.5 c 128,-1,24
 -92 605 -92 605 -111 583 c 1,25,-1
 -111 656 l 1,0,1
EndSplineSet
EndChar

StartChar: uni0308
Encoding: 776 776 212
Width: 0
GlyphClass: 2
Flags: W
LayerCount: 2
Fore
SplineSet
-117 681 m 1,0,-1
 -40 681 l 1,1,-1
 -40 593 l 1,2,-1
 -117 593 l 1,3,-1
 -117 681 l 1,0,-1
39 681 m 1,4,-1
 116 681 l 1,5,-1
 116 593 l 1,6,-1
 39 593 l 1,7,-1
 39 681 l 1,4,-1
EndSplineSet
EndChar

StartChar: uni030A
Encoding: 778 778 213
Width: 0
GlyphClass: 2
Flags: W
LayerCount: 2
Fore
SplineSet
-65.5 595.5 m 128,-1,1
 -91 622 -91 622 -91 660 c 256,2,3
 -91 699 -91 699 -65.5 725.5 c 128,-1,4
 -40 752 -40 752 -1 752 c 0,5,6
 39 752 39 752 65 725.5 c 128,-1,7
 91 699 91 699 91 660 c 256,8,9
 91 621 91 621 65 595 c 128,-1,10
 39 569 39 569 -1 569 c 0,11,0
 -40 569 -40 569 -65.5 595.5 c 128,-1,1
35.5 623.5 m 128,-1,13
 49 638 49 638 49 660 c 256,14,15
 49 683 49 683 35.5 698 c 128,-1,16
 22 713 22 713 -1 713 c 0,17,18
 -23 713 -23 713 -36.5 698 c 128,-1,19
 -50 683 -50 683 -50 660 c 256,20,21
 -50 637 -50 637 -36.5 623 c 128,-1,22
 -23 609 -23 609 -1 609 c 0,23,12
 22 609 22 609 35.5 623.5 c 128,-1,13
EndSplineSet
EndChar

StartChar: endash
Encoding: 8211 8211 214
Width: 427
GlyphClass: 2
Flags: W
LayerCount: 2
Fore
SplineSet
0 389 m 1,0,-1
 427 389 l 1,1,-1
 427 323 l 1,2,-1
 0 323 l 1,3,-1
 0 389 l 1,0,-1
EndSplineSet
EndChar

StartChar: emdash
Encoding: 8212 8212 215
Width: 852
GlyphClass: 2
Flags: W
LayerCount: 2
Fore
SplineSet
0 389 m 1,0,-1
 853 389 l 1,1,-1
 853 323 l 1,2,-1
 0 323 l 1,3,-1
 0 389 l 1,0,-1
EndSplineSet
EndChar

StartChar: quoteleft
Encoding: 8216 8216 216
Width: 153
GlyphClass: 2
Flags: W
LayerCount: 2
Fore
SplineSet
112 501 m 1,0,-1
 42 501 l 1,1,-1
 42 680 l 1,2,-1
 112 740 l 1,3,-1
 112 501 l 1,0,-1
60 707 m 1024,4,-1
EndSplineSet
EndChar

StartChar: quoteright
Encoding: 8217 8217 217
Width: 153
GlyphClass: 2
Flags: W
LayerCount: 2
Fore
SplineSet
42 707 m 1,0,-1
 112 707 l 1,1,-1
 112 527 l 1,2,-1
 42 467 l 1,3,-1
 42 707 l 1,0,-1
EndSplineSet
EndChar

StartChar: quotedblleft
Encoding: 8220 8220 219
Width: 286
GlyphClass: 2
Flags: W
LayerCount: 2
Fore
SplineSet
112 501 m 1,0,-1
 42 501 l 1,1,-1
 42 680 l 1,2,-1
 112 740 l 1,3,-1
 112 501 l 1,0,-1
245 501 m 1,4,-1
 175 501 l 1,5,-1
 175 680 l 1,6,-1
 245 740 l 1,7,-1
 245 501 l 1,4,-1
94 707 m 1024,8,-1
EndSplineSet
EndChar

StartChar: quotedblright
Encoding: 8221 8221 220
Width: 286
GlyphClass: 2
Flags: W
LayerCount: 2
Fore
SplineSet
42 707 m 1,0,-1
 112 707 l 1,1,-1
 112 527 l 1,2,-1
 42 467 l 1,3,-1
 42 707 l 1,0,-1
175 707 m 1,4,-1
 245 707 l 1,5,-1
 245 527 l 1,6,-1
 175 467 l 1,7,-1
 175 707 l 1,4,-1
EndSplineSet
EndChar

StartChar: dagger
Encoding: 8224 8224 222
Width: 483
GlyphClass: 2
Flags: W
LayerCount: 2
Fore
SplineSet
423 388 m 1,0,-1
 280 388 l 1,1,-1
 280 -156 l 1,2,-1
 205 -156 l 1,3,-1
 205 388 l 1,4,-1
 60 388 l 1,5,-1
 60 456 l 1,6,-1
 205 456 l 1,7,-1
 205 707 l 1,8,-1
 280 707 l 1,9,-1
 280 456 l 1,10,-1
 423 456 l 1,11,-1
 423 388 l 1,0,-1
EndSplineSet
EndChar

StartChar: daggerdbl
Encoding: 8225 8225 223
Width: 483
GlyphClass: 2
Flags: W
LayerCount: 2
Fore
SplineSet
280 393 m 1,0,-1
 280 159 l 1,1,-1
 423 159 l 1,2,-1
 423 91 l 1,3,-1
 280 91 l 1,4,-1
 280 -156 l 1,5,-1
 205 -156 l 1,6,-1
 205 91 l 1,7,-1
 60 91 l 1,8,-1
 60 159 l 1,9,-1
 205 159 l 1,10,-1
 205 393 l 1,11,-1
 60 393 l 1,12,-1
 60 461 l 1,13,-1
 205 461 l 1,14,-1
 205 707 l 1,15,-1
 280 707 l 1,16,-1
 280 461 l 1,17,-1
 423 461 l 1,18,-1
 423 393 l 1,19,-1
 280 393 l 1,0,-1
EndSplineSet
EndChar

StartChar: bullet
Encoding: 8226 8226 224
Width: 432
GlyphClass: 2
Flags: W
LayerCount: 2
Fore
SplineSet
127 226 m 128,-1,1
 91 262 91 262 91 315 c 0,2,3
 91 369 91 369 127 404.5 c 128,-1,4
 163 440 163 440 216 440 c 0,5,6
 270 440 270 440 305.5 405 c 128,-1,7
 341 370 341 370 341 315 c 0,8,9
 341 262 341 262 305.5 226 c 128,-1,10
 270 190 270 190 216 190 c 0,11,0
 163 190 163 190 127 226 c 128,-1,1
EndSplineSet
EndChar

StartChar: perthousand
Encoding: 8240 8240 226
Width: 992
GlyphClass: 2
Flags: W
LayerCount: 2
Fore
SplineSet
60 302.5 m 128,-1,1
 34 335 34 335 34 400 c 2,2,-1
 34 586 l 2,3,4
 34 651 34 651 60.5 682.5 c 128,-1,5
 87 714 87 714 141 714 c 0,6,7
 196 714 196 714 222.5 682 c 128,-1,8
 249 650 249 650 249 586 c 2,9,-1
 249 400 l 2,10,11
 249 334 249 334 223 302 c 128,-1,12
 197 270 197 270 141 270 c 256,13,0
 86 270 86 270 60 302.5 c 128,-1,1
450 707 m 1,14,-1
 514 707 l 1,15,-1
 260 0 l 1,16,-1
 196 0 l 1,17,-1
 450 707 l 1,14,-1
170 349.5 m 128,-1,19
 178 365 178 365 178 400 c 2,20,-1
 178 586 l 2,21,22
 178 621 178 621 170 635.5 c 128,-1,23
 162 650 162 650 141 650 c 256,24,25
 121 650 121 650 112.5 635.5 c 128,-1,26
 104 621 104 621 104 586 c 2,27,-1
 104 400 l 2,28,29
 104 364 104 364 112.5 349 c 128,-1,30
 121 334 121 334 141 334 c 256,31,18
 162 334 162 334 170 349.5 c 128,-1,19
486 24 m 128,-1,33
 460 56 460 56 460 122 c 2,34,-1
 460 307 l 2,35,36
 460 372 460 372 486.5 403.5 c 128,-1,37
 513 435 513 435 567 435 c 0,38,39
 622 435 622 435 648.5 403.5 c 128,-1,40
 675 372 675 372 675 307 c 2,41,-1
 675 122 l 2,42,43
 675 56 675 56 649 24 c 128,-1,44
 623 -8 623 -8 567 -8 c 256,45,32
 512 -8 512 -8 486 24 c 128,-1,33
770.5 24 m 128,-1,47
 744 56 744 56 744 122 c 2,48,-1
 744 307 l 2,49,50
 744 372 744 372 771 403.5 c 128,-1,51
 798 435 798 435 852 435 c 0,52,53
 907 435 907 435 933 403.5 c 128,-1,54
 959 372 959 372 959 307 c 2,55,-1
 959 122 l 2,56,57
 959 56 959 56 933 24 c 128,-1,58
 907 -8 907 -8 852 -8 c 256,59,46
 797 -8 797 -8 770.5 24 c 128,-1,47
596 70.5 m 128,-1,61
 604 86 604 86 604 122 c 2,62,-1
 604 307 l 2,63,64
 604 342 604 342 596 357 c 128,-1,65
 588 372 588 372 567 372 c 256,66,67
 547 372 547 372 538.5 357 c 128,-1,68
 530 342 530 342 530 307 c 2,69,-1
 530 122 l 2,70,71
 530 86 530 86 538.5 70.5 c 128,-1,72
 547 55 547 55 567 55 c 256,73,60
 588 55 588 55 596 70.5 c 128,-1,61
880.5 70.5 m 128,-1,75
 889 86 889 86 889 122 c 2,76,-1
 889 307 l 2,77,78
 889 342 889 342 880.5 357 c 128,-1,79
 872 372 872 372 852 372 c 256,80,81
 832 372 832 372 823.5 357 c 128,-1,82
 815 342 815 342 815 307 c 2,83,-1
 815 122 l 2,84,85
 815 86 815 86 823 70.5 c 128,-1,86
 831 55 831 55 852 55 c 256,87,74
 872 55 872 55 880.5 70.5 c 128,-1,75
EndSplineSet
EndChar

StartChar: guilsinglleft
Encoding: 8249 8249 227
Width: 264
GlyphClass: 2
Flags: W
LayerCount: 2
Fore
SplineSet
20 270 m 1,0,-1
 204 458 l 1,1,-1
 204 380 l 1,2,-1
 97 270 l 1,3,-1
 204 161 l 1,4,-1
 204 83 l 1,5,-1
 20 270 l 1,0,-1
EndSplineSet
Substitution2: "'rtla' Right to Left Alternates lookup 0 subtable" guilsinglright
EndChar

StartChar: guilsinglright
Encoding: 8250 8250 228
Width: 274
GlyphClass: 2
Flags: W
LayerCount: 2
Fore
SplineSet
60 161 m 1,0,-1
 167 270 l 1,1,-1
 60 380 l 1,2,-1
 60 458 l 1,3,-1
 244 270 l 1,4,-1
 60 83 l 1,5,-1
 60 161 l 1,0,-1
EndSplineSet
Substitution2: "'rtla' Right to Left Alternates lookup 0 subtable" guilsinglleft
EndChar

StartChar: Euro
Encoding: 8364 8364 229
Width: 465
GlyphClass: 2
Flags: W
LayerCount: 2
Fore
SplineSet
132 42 m 128,-1,1
 95 92 95 92 95 183 c 2,2,-1
 95 259 l 1,3,-1
 31 259 l 1,4,-1
 31 323 l 1,5,-1
 95 323 l 1,6,-1
 95 390 l 1,7,-1
 31 390 l 1,8,-1
 31 455 l 1,9,-1
 95 455 l 1,10,-1
 95 534 l 2,11,12
 95 618 95 618 134.5 667.5 c 128,-1,13
 174 717 174 717 256 717 c 0,14,15
 331 717 331 717 370.5 673.5 c 128,-1,16
 410 630 410 630 412 550 c 1,17,-1
 342 550 l 1,18,19
 339 600 339 600 319.5 625 c 128,-1,20
 300 650 300 650 257 650 c 0,21,22
 170 650 170 650 170 539 c 2,23,-1
 170 455 l 1,24,-1
 348 455 l 1,25,-1
 336 390 l 1,26,-1
 170 390 l 1,27,-1
 170 323 l 1,28,-1
 323 323 l 1,29,-1
 310 259 l 1,30,-1
 170 259 l 1,31,-1
 170 180 l 2,32,33
 170 121 170 121 189 89.5 c 128,-1,34
 208 58 208 58 257 58 c 0,35,36
 299 58 299 58 318.5 83.5 c 128,-1,37
 338 109 338 109 342 160 c 1,38,-1
 413 160 l 1,39,40
 411 77 411 77 370 34.5 c 128,-1,41
 329 -8 329 -8 256 -8 c 0,42,0
 169 -8 169 -8 132 42 c 128,-1,1
EndSplineSet
EndChar

StartChar: trademark
Encoding: 8482 8482 230
Width: 685
GlyphClass: 2
Flags: W
LayerCount: 2
Fore
SplineSet
118 645 m 1,0,-1
 31 645 l 1,1,-1
 31 707 l 1,2,-1
 271 707 l 1,3,-1
 271 645 l 1,4,-1
 184 645 l 1,5,-1
 184 303 l 1,6,-1
 118 303 l 1,7,-1
 118 645 l 1,0,-1
326 707 m 1,8,-1
 392 707 l 1,9,-1
 475 457 l 1,10,-1
 477 457 l 1,11,-1
 558 707 l 1,12,-1
 624 707 l 1,13,-1
 624 303 l 1,14,-1
 561 303 l 1,15,-1
 561 549 l 1,16,-1
 559 549 l 1,17,-1
 497 366 l 1,18,-1
 454 366 l 1,19,-1
 391 549 l 1,20,-1
 389 549 l 1,21,-1
 389 303 l 1,22,-1
 326 303 l 1,23,-1
 326 707 l 1,8,-1
EndSplineSet
EndChar

StartChar: t_t
Encoding: 65539 -1 234
Width: 564
GlyphClass: 3
Flags: W
LayerCount: 2
Fore
SplineSet
427 465 m 1,0,-1
 427 142 l 2,1,2
 427 101 427 101 446.5 81 c 128,-1,3
 466 61 466 61 505 61 c 2,4,-1
 520 61 l 1,5,-1
 520 0 l 1,6,-1
 503 0 l 2,7,8
 358 0 358 0 357 139 c 2,9,-1
 357 465 l 1,10,-1
 165 465 l 1,11,-1
 165 142 l 2,12,13
 165 101 165 101 184.5 81 c 128,-1,14
 204 61 204 61 244 61 c 2,15,-1
 258 61 l 1,16,-1
 258 0 l 1,17,-1
 241 0 l 2,18,19
 96 0 96 0 95 139 c 2,20,-1
 95 465 l 1,21,-1
 28 465 l 1,22,-1
 28 519 l 1,23,-1
 95 519 l 1,24,-1
 95 640 l 1,25,-1
 165 672 l 1,26,-1
 165 519 l 1,27,-1
 357 519 l 1,28,-1
 357 640 l 1,29,-1
 427 672 l 1,30,-1
 427 519 l 1,31,-1
 528 519 l 1,32,-1
 528 465 l 1,33,-1
 427 465 l 1,0,-1
EndSplineSet
Ligature2: "'dlig' Discretionary Ligatures in Latin lookup 3 subtable" t t
EndChar

StartChar: zero.sups
Encoding: 65550 -1 245
Width: 281
GlyphClass: 2
Flags: W
LayerCount: 2
Fore
SplineSet
60 466.5 m 128,-1,1
 34 499 34 499 34 564 c 2,2,-1
 34 750 l 2,3,4
 34 815 34 815 60.5 846.5 c 128,-1,5
 87 878 87 878 141 878 c 0,6,7
 196 878 196 878 222.5 846 c 128,-1,8
 249 814 249 814 249 750 c 2,9,-1
 249 564 l 2,10,11
 249 498 249 498 223 466 c 128,-1,12
 197 434 197 434 141 434 c 256,13,0
 86 434 86 434 60 466.5 c 128,-1,1
170 513 m 128,-1,15
 178 528 178 528 178 564 c 2,16,-1
 178 750 l 2,17,18
 178 785 178 785 170 799.5 c 128,-1,19
 162 814 162 814 141 814 c 256,20,21
 121 814 121 814 112.5 799 c 128,-1,22
 104 784 104 784 104 750 c 2,23,-1
 104 564 l 2,24,25
 104 528 104 528 112.5 513 c 128,-1,26
 121 498 121 498 141 498 c 256,27,14
 162 498 162 498 170 513 c 128,-1,15
EndSplineSet
EndChar

StartChar: one.sups
Encoding: 65551 -1 246
Width: 203
GlyphClass: 2
Flags: W
LayerCount: 2
Fore
SplineSet
85 788 m 1,0,-1
 22 737 l 1,1,-1
 22 818 l 1,2,-1
 85 868 l 1,3,-1
 158 868 l 1,4,-1
 158 440 l 1,5,-1
 85 440 l 1,6,-1
 85 788 l 1,0,-1
EndSplineSet
EndChar

StartChar: two.sups
Encoding: 65552 -1 247
Width: 277
GlyphClass: 2
Flags: W
LayerCount: 2
Fore
SplineSet
33 502 m 1,0,-1
 151 684 l 2,1,2
 163 703 163 703 168 717.5 c 128,-1,3
 173 732 173 732 173 751 c 2,4,-1
 173 771 l 2,5,6
 173 790 173 790 164.5 801.5 c 128,-1,7
 156 813 156 813 138 813 c 0,8,9
 103 813 103 813 103 766 c 2,10,-1
 103 743 l 1,11,-1
 35 743 l 1,12,-1
 35 774 l 2,13,14
 35 820 35 820 63.5 848 c 128,-1,15
 92 876 92 876 140 876 c 0,16,17
 187 876 187 876 215.5 847.5 c 128,-1,18
 244 819 244 819 244 773 c 2,19,-1
 244 749 l 2,20,21
 244 722 244 722 235.5 700.5 c 128,-1,22
 227 679 227 679 210 652 c 2,23,-1
 115 504 l 1,24,-1
 244 504 l 1,25,-1
 244 440 l 1,26,-1
 33 440 l 1,27,-1
 33 502 l 1,0,-1
EndSplineSet
EndChar

StartChar: three.sups
Encoding: 65553 -1 248
Width: 274
GlyphClass: 2
Flags: W
LayerCount: 2
Fore
SplineSet
58 461 m 128,-1,1
 31 488 31 488 31 536 c 2,2,-1
 31 561 l 1,3,-1
 98 561 l 1,4,-1
 98 538 l 2,5,6
 98 519 98 519 107.5 508 c 128,-1,7
 117 497 117 497 134 497 c 0,8,9
 171 497 171 497 171 544 c 2,10,-1
 171 581 l 2,11,12
 171 607 171 607 161.5 618.5 c 128,-1,13
 152 630 152 630 130 630 c 2,14,-1
 112 630 l 1,15,-1
 112 692 l 1,16,-1
 130 692 l 2,17,18
 169 692 169 692 169 737 c 2,19,-1
 169 768 l 2,20,21
 169 813 169 813 134 813 c 0,22,23
 117 813 117 813 108 802.5 c 128,-1,24
 99 792 99 792 99 772 c 2,25,-1
 99 749 l 1,26,-1
 31 749 l 1,27,-1
 31 775 l 2,28,29
 31 821 31 821 59 848.5 c 128,-1,30
 87 876 87 876 135 876 c 0,31,32
 184 876 184 876 212 848 c 128,-1,33
 240 820 240 820 240 771 c 2,34,-1
 240 746 l 2,35,36
 240 715 240 715 229 695.5 c 128,-1,37
 218 676 218 676 195 665 c 1,38,39
 222 654 222 654 232 632.5 c 128,-1,40
 242 611 242 611 242 577 c 2,41,-1
 242 541 l 2,42,43
 242 492 242 492 212.5 463 c 128,-1,44
 183 434 183 434 135 434 c 0,45,0
 85 434 85 434 58 461 c 128,-1,1
EndSplineSet
EndChar

StartChar: four.sups
Encoding: 65554 -1 249
Width: 289
GlyphClass: 2
Flags: W
LayerCount: 2
Fore
SplineSet
264 516 m 1,0,-1
 232 516 l 1,1,-1
 232 440 l 1,2,-1
 161 440 l 1,3,-1
 161 516 l 1,4,-1
 24 516 l 1,5,-1
 24 580 l 1,6,-1
 118 868 l 1,7,-1
 189 868 l 1,8,-1
 95 580 l 1,9,-1
 161 580 l 1,10,-1
 161 678 l 1,11,-1
 232 678 l 1,12,-1
 232 580 l 1,13,-1
 264 580 l 1,14,-1
 264 516 l 1,0,-1
EndSplineSet
EndChar
